<svg xmlns="http://www.w3.org/2000/svg" width="256" height="256"><path fill="#1976D2" fill-opacity=".016" fill-rule="evenodd" d="M0 128.004v128.004l128.25-.254 128.25-.254.254-127.75L257.008 0H0zm.485.496c0 70.4.119 99.053.265 63.672s.146-92.98 0-128S.485 58.1.485 128.5"/><path fill="#1976D2" fill-opacity=".215" fill-rule="evenodd" d="M106.608 61.522C92.308 65.448 77 77.69 70.231 90.613c-8.602 16.422-8.797 36.402-.515 52.844 2.804 5.565 6.311 10.849 6.846 10.314.19-.189-.748-3.354-2.083-7.033-11.205-30.868 7.709-65.977 39.981-74.216 4.502-1.15 11.694-1.522 29.397-1.522h23.437l4.473-3.75a749 749 0 0 1 6.603-5.478c2.027-1.644.467-1.724-32.37-1.66-25.604.05-35.761.413-39.392 1.41M181 71.078l-10.5 9.868-24.5.039c-17.475.028-25.977.432-29.65 1.41-22.993 6.122-38.425 29.738-34.538 52.855.67 3.987 2.605 10.093 4.299 13.567l3.08 6.316 22.655-.316c24.949-.349 27.978-.998 34.654-7.428l3-2.889-11.648-.5-11.648-.5 8.301-15c7.973-14.407 8.433-15.01 11.648-15.254 9.406-.712 12.054-1.488 15.585-4.564 3.465-3.017 3.706-2.218.468 1.553-1.323 1.542-1.292 2.362.277 7.352 5.197 16.522-3.169 35.758-18.856 43.351-6.938 3.359-13.736 4.061-39.513 4.081l-24.614.018-7.5 14.545c-4.125 7.999-7.681 15.078-7.903 15.731s4.397-3.426 10.264-9.063L85.028 176l22.736-.017c25.041-.019 32.394-1.002 41.313-5.522 6.769-3.43 16.136-12.342 19.915-18.947 7.621-13.321 7.982-30.436.943-44.764l-2.334-4.75-23.05.022c-20.148.019-23.555.252-27.051 1.845-4.349 1.983-10.5 6.78-10.5 8.19 0 .484 5.109 1.006 11.354 1.161l11.354.282-8.424 15.25-8.423 15.25h-6.496c-7.222 0-9.762.932-13.197 4.844l-2.331 2.656 1.574-3.187c.866-1.752 2.001-3.45 2.522-3.771.559-.346.277-2.113-.689-4.314-1.081-2.464-1.646-6.609-1.668-12.228-.027-7.144.391-9.412 2.626-14.218 3.51-7.55 10.719-15.105 17.673-18.52L118.5 92.5l29-.307 29-.308 7.714-15.145c4.243-8.33 7.618-15.232 7.5-15.338S186.775 65.65 181 71.078m.637 37.422c3.428 9.166 4.265 23.025 1.979 32.75-3.239 13.774-11.736 26.21-23.294 34.09-12.889 8.788-21.876 10.642-51.639 10.652L87.866 186l-5.433 4.691c-2.988 2.58-5.433 5.091-5.433 5.58 0 .509 14.653.734 34.25.526 32.695-.347 34.545-.468 40.75-2.664 3.575-1.265 8.975-3.693 12-5.395 7.379-4.154 17.754-14.841 21.775-22.43 4.012-7.573 7.231-19.727 7.208-27.218-.037-11.675-5.137-27.097-11.44-34.59l-2.523-3z"/><path fill="#1976D2" fill-opacity=".508" fill-rule="evenodd" d="M107.202 62.022C96.834 64.738 88.503 69.499 80.99 77c-17.908 17.879-22.029 44.086-10.526 66.929 4.381 8.699 5.798 9.706 3.201 2.274-2.764-7.909-3.341-22.61-1.241-31.59 4.418-18.891 18.68-34.545 37.695-41.373 7.106-2.551 8.331-2.665 32.881-3.049l25.5-.4 5.5-4.884 5.5-4.885-32.5.044c-28.699.039-33.354.268-39.798 1.956m73.766 9.51L171.54 81h-23.134c-12.723 0-25.555.459-28.515 1.021-12.143 2.302-24.156 10.483-30.955 21.079-8.54 13.308-9.274 32.486-1.805 47.15l1.91 3.75h21.801c24.505 0 28.219-.695 34.812-6.52l3.846-3.397-11.75-.041c-6.463-.023-11.733-.38-11.711-.792.021-.412 3.796-7.5 8.389-15.75l8.351-15 7.385-.535c7.925-.575 10.894-1.99 13.973-6.66 1.211-1.836 1.852-2.249 1.856-1.195.004.886-1.043 3.158-2.327 5.05-2.081 3.067-2.205 3.811-1.145 6.889 6.144 17.842-2.026 37.161-19.304 45.644L137.5 164.5l-28.743.306-28.743.307-7.281 14.358-7.282 14.358 10.086-9.339 10.085-9.339 26.439-.351c24.425-.324 26.851-.518 31.849-2.54 16.993-6.877 27.42-19.984 30.267-38.047 1.272-8.072-.305-17.862-4.208-26.116L167.085 102h-20.861c-23.576 0-28.808.943-34.911 6.293l-3.658 3.207 11.603.5 11.603.5-8.679 15.75-8.679 15.75-5.001.006c-7.717.008-12.05 1.622-15.458 5.757-3.678 4.462-4.035 2.977-.528-2.192 2.443-3.599 2.472-3.839 1-8.174-.834-2.457-1.516-7.584-1.516-11.394 0-12.475 5.662-23.144 16.042-30.228 8.782-5.995 13.718-6.774 42.918-6.78l25.54-.005 7.18-14.232c3.948-7.828 7.075-14.336 6.948-14.463s-4.474 4.029-9.66 9.237m.348 34.968c4.568 9.683 5.397 26.535 1.871 38.06-6 19.615-22.558 35.252-42.24 39.891-4.769 1.124-12.394 1.523-29.301 1.534L88.793 186l-5.984 5-5.984 5h32.538c19.723 0 34.626-.432 37.838-1.097 19.746-4.088 38.14-21.758 43.31-41.606 1.86-7.143 1.908-22.136.091-28.958-1.774-6.663-5.716-15.162-8.506-18.339l-2.195-2.5z"/><path fill="#1976D2" fill-opacity=".267" fill-rule="evenodd" d="M113.402 60.997c-24.124 3.537-43.228 21.989-48.021 46.382-1.45 7.381-1.549 10.087-.622 17.015 1.137 8.499 4.869 19.243 8.19 23.577 1.861 2.43 1.862 2.38.052-2.969-8.51-25.137 4.29-55.694 28.602-68.28 11.297-5.848 16.694-6.69 42.957-6.707L167.62 70l5.44-4.616c2.992-2.538 5.627-4.788 5.857-5 .773-.713-60.371-.141-65.515.613m70.336 50.753c2.516 7.752 2.263 25.158-.494 33.925-4.468 14.209-15.915 27.597-29.432 34.42C143.421 185.34 138.85 186 112.898 186H89.217l-5.65 4.75-5.651 4.75 30.792.279c34.941.318 40.084-.321 52.546-6.524 22.611-11.254 35.502-39.411 29.207-63.795-1.476-5.72-6.867-18.46-7.811-18.46-.25 0 .24 2.138 1.088 4.75M82.158 128c0 1.375.227 1.938.504 1.25.278-.687.278-1.812 0-2.5-.277-.687-.504-.125-.504 1.25"/></svg>