<svg xmlns="http://www.w3.org/2000/svg" width="256" height="256"><path fill="#1976D2" fill-opacity=".016" fill-rule="evenodd" d="M0 128.004v128.004l128.25-.254 128.25-.254.254-127.75L257.008 0H0zm.485.496c0 70.4.119 99.053.265 63.672s.146-92.98 0-128S.485 58.1.485 128.5"/><path fill="#1976D2" fill-opacity=".151" fill-rule="evenodd" d="M111.919 25.946C88.824 30.18 68.396 41.112 53.295 57.317 39.724 71.882 31.102 88.567 26.848 108.5c-1.652 7.738-1.652 31.262 0 39 7.4 34.67 30.163 62.623 61.628 75.678 14.281 5.926 21.488 7.251 39.524 7.27 14.943.015 17.43-.242 26.358-2.721 38.32-10.64 66.361-40.717 74.794-80.227.705-3.3 1.281-12.075 1.281-19.5 0-18.137-2.818-30.697-10.209-45.5-13.292-26.621-36.967-46.209-65.345-54.066-7.602-2.105-12.127-2.666-23.879-2.962-7.975-.201-16.561.012-19.081.474m.081 1.575C92.888 30.505 73.776 39.815 59.697 53c-10.511 9.844-16.799 18.276-22.745 30.5-13.79 28.349-13.79 60.651 0 89 5.938 12.209 12.223 20.641 22.731 30.5 20.763 19.481 50.751 29.387 79.067 26.12 21.935-2.532 42.25-11.749 57.567-26.12 10.508-9.859 16.793-18.291 22.731-30.5 13.79-28.349 13.79-60.651 0-89-5.946-12.224-12.234-20.656-22.745-30.5-14.406-13.491-33.251-22.533-53.241-25.547-11.466-1.728-19.673-1.71-31.062.068m7.684 4.128c-.3.301-2.49.688-4.865.86-6.038.438-12.92 1.906-15.503 3.307-1.202.651-3.053 1.184-4.115 1.184s-3.075.9-4.474 2c-1.398 1.1-3.423 2-4.5 2C84.014 41 79 44.6 79 46.189c0 .612 1.036.789 2.5.428 1.375-.34 3.737-.882 5.25-1.206l2.75-.588-2.931 2.027c-1.959 1.355-3.841 1.846-5.674 1.479-1.692-.338-3.624.068-5.042 1.061-1.264.886-2.718 1.61-3.23 1.61-1.599 0 2.596-3.996 4.282-4.079 1.053-.052 1.166-.252.332-.587-1.27-.512-5.391 2.399-11.914 8.416-1.938 1.788-3.895 3.25-4.35 3.25-.456 0-1.768 1.237-2.917 2.75a177 177 0 0 1-4.617 5.75c-6.661 7.907-8.434 10.37-8.371 11.632.037.752.571.322 1.186-.957s2.834-3.2 4.932-4.27S55 70.527 55 69.999c0-.529 1.237-1.244 2.75-1.59 1.513-.345 4.325-2.109 6.25-3.92C72.81 56.205 74.207 55 75 55c.466 0 2.119-1.043 3.673-2.317 1.555-1.275 4.275-2.898 6.044-3.608 1.769-.709 3.737-1.917 4.372-2.683.636-.765 2.14-1.392 3.342-1.392 1.203 0 3.06-.661 4.128-1.468 1.067-.808 2.983-1.483 4.257-1.5 1.273-.018 3.224-.518 4.335-1.113 1.896-1.014 6.779-1.852 13.099-2.247 1.513-.095 2.75-.273 2.75-.396 0-.915-6.533-3.289-9.2-3.344-3.152-.064-3.196-.117-.99-1.179 1.712-.824 3.153-.807 5.571.068 1.793.648 4.44 1.179 5.881 1.179 3.063 0 4.576 1.678 2 2.219-.969.203.713.437 3.738.52s7.525.337 10 .565 3.652.214 2.614-.032c-1.037-.246-2.809-1.307-3.938-2.359S133.358 34 131.811 34c-1.546 0-2.811-.45-2.811-1 0-1.715 5.611-1.094 8.148.902 1.33 1.046 3.528 2.069 4.885 2.274 1.357.204 2.376.858 2.266 1.452-.111.594 2.364 1.884 5.5 2.866 3.135.982 6.601 2.132 7.701 2.555 4.335 1.668 5.589 1.903 4.993.94-.336-.544-1.244-.989-2.017-.989-.774 0-2.944-1.35-4.823-3s-3.898-3-4.485-3-1.428-.563-1.868-1.252c-1.326-2.074-5.586-3.802-9.3-3.771-1.925.015-7.16-.175-11.634-.423-4.474-.249-8.381-.206-8.682.095m32.816 3.305c1.1.455 3.091 2.001 4.424 3.437S159.915 41 160.606 41c.692 0 2.177 1.291 3.3 2.868s3.516 3.462 5.318 4.189 4.668 2.36 6.37 3.632c1.702 1.271 3.441 2.311 3.863 2.311 1.756 0 9.476 7.164 18.858 17.5l3.631 4 .027-2.785c.015-1.532-.7-3.895-1.588-5.25-.888-1.356-1.183-2.465-.655-2.465 1.732 0 4.27 3.608 4.276 6.079.004 1.331.679 3.71 1.5 5.285 2.273 4.358 1.719 5.498-1.037 2.136-3.226-3.936-3.2-2.147.031 2.089 1.375 1.803 2.5 3.697 2.5 4.209 0 .513.833 2.005 1.851 3.317s2.112 3.51 2.43 4.885c.655 2.826 3.478 11.478 4.732 14.5.457 1.1.832 2.675.835 3.5s.383 4.875.845 9c.956 8.538.752 16.245-.622 23.5-.521 2.75-1.197 6.35-1.501 8l-.553 3 .976-3.081c.537-1.695 1.884-3.902 2.992-4.905s2.022-2.542 2.03-3.419.452-2.27.985-3.095c.738-1.142.973-.743.985 1.673.009 1.943-.954 4.325-2.485 6.145-1.375 1.634-2.5 3.641-2.5 4.461s-1.07 2.192-2.377 3.049c-1.308.856-2.689 2.82-3.07 4.365-.681 2.762-3.932 10.37-5.686 13.307-3.749 6.277-6.562 9.95-13.117 17.132-2.062 2.26-3.75 4.505-3.75 4.989 0 .483-.591.879-1.313.879s-2.606 1.35-4.187 3-3.31 3-3.843 3-2.361 1.06-4.063 2.356-4.066 2.663-5.254 3.039c-1.188.375-2.763 1.453-3.5 2.394-1.221 1.559-1.177 1.583.491.271 1.007-.791 3.932-1.761 6.5-2.155s5.794-1.042 7.169-1.442c2.381-.691 2.419-.639.79 1.08-1.712 1.808-8.24 3.27-16.919 3.791-2.546.152-5.696.974-7 1.825-1.304.852-3.946 1.856-5.871 2.233-1.925.376-5.75 1.142-8.5 1.701s-6.575 1.008-8.5.997l-3.5-.022 4 1.586c2.2.872 5.463 1.532 7.25 1.466 1.787-.065 3.25.282 3.25.772 0 1.744-4.848 2.07-8.442.568-2.009-.839-4.193-1.458-4.855-1.375-.662.084-1.878.092-2.703.018-1.333-.119-1.333-.241 0-1.103 1.168-.755.835-1.013-1.5-1.165-7.31-.478-14.871-.5-13.5-.04.825.277 2.573 1.336 3.885 2.354s3.412 1.851 4.667 1.851 2.444.489 2.643 1.086c.647 1.941 17.618 1.144 20.135-.945.779-.646 2.131-.901 3.005-.566s3.025-.107 4.78-.983c1.756-.875 4.187-1.592 5.404-1.592s3.355-.9 4.754-2 3.329-2 4.29-2c.962 0 3.223-1.125 5.026-2.5s3.898-2.5 4.657-2.5 2.673-1.35 4.254-3 3.382-3 4.003-3 2.554-1.463 4.295-3.25a345 345 0 0 1 5.331-5.353c5.498-5.339 8.871-9.456 8.871-10.828 0-.824.846-1.951 1.88-2.505s2.627-2.706 3.542-4.785c.914-2.078 2.397-5.129 3.296-6.779 3.981-7.309 5.282-10.433 5.282-12.686 0-1.328.443-2.857.985-3.399 2.864-2.864 4.773-27.627 3.043-39.483-2.289-15.693-5.9-26.723-9.095-27.788-.923-.307-1.051.922-.518 4.974.57 4.329.462 5.137-.553 4.132-.694-.688-1.36-3.388-1.48-6s-.511-6.1-.868-7.75c-.618-2.851-.573-2.904.918-1.059.862 1.068 1.568 2.53 1.568 3.25s.408 1.309.906 1.309c1.272 0 .166-3.695-1.526-5.099-.772-.641-2.275-3.136-3.341-5.545-1.065-2.409-2.635-4.647-3.488-4.975s-1.551-1.109-1.55-1.738c.001-1.049-1.246-2.494-8.316-9.643-7.623-7.707-11.661-10.815-21.347-16.429-6.376-3.695-10.291-5.059-4.652-1.621 1.753 1.069 3.736 2.98 4.409 4.246s2.051 2.892 3.064 3.611c2.977 2.112 2.108 3.382-1.159 1.693-1.65-.853-3-2-3-2.547 0-1.931-10.927-11.895-13.696-12.489-1.542-.332-3.838-1.021-5.101-1.533s-2.838-.902-3.5-.868-.303.436.797.891m-60.985 4.411c-1.288.942-.095 1.166 5.932 1.111 4.15-.037 7.997-.52 8.549-1.072 1.474-1.474-12.467-1.512-14.481-.039M126 46.441c0 2.507.45 4.559 1 4.559s1-1.773 1-3.941-.45-4.219-1-4.559c-.611-.378-1 1.156-1 3.941m-11.812-1.813c-.847 1.514-1.235 1.578-2.615.432-2.193-1.819-3.27-.51-1.386 1.684.83.966 1.788 2.544 2.13 3.506 1.055 2.976 2.397 1.941 3.088-2.384.742-4.639.27-5.895-1.217-3.238m3.787.937c-.536 1.411-.975 3.491-.975 4.623 0 1.707.253 1.847 1.487.823.853-.708 2.559-.965 4-.604 2.936.737 2.968.618 1.064-3.939-1.711-4.095-4.209-4.499-5.576-.903m11.857-.095c-.861 1.889-.827 2.831.143 4 1.409 1.697 6.025 2.103 6.025.53 0-.55-.9-1-2-1q-2 0-2-2c0-1.467.667-2 2.5-2 1.375 0 2.5-.45 2.5-1s-1.36-1-3.021-1c-2.243 0-3.312.637-4.147 2.47m8.845-1.72c-.243.413-.746 2.17-1.118 3.905-.712 3.32.979 5.713 2.055 2.908.754-1.964 3.212-2.063 3.025-.122-.309 3.202 1.847 1.801 2.686-1.745 1.021-4.319.135-6.046-1.767-3.444C141.877 47.55 141 47.464 141 45c0-1.957-1.448-2.737-2.323-1.25m-34.427 1.912c-2.284.922-1.353 4.134 1.5 5.176 2.495.911 2.541 1.011.5 1.083-2.41.085-3.208 2.079-.832 2.079 4.707 0 6.272-3.879 2.332-5.78-1.237-.596-1.687-1.115-1-1.152.688-.038 1.25-.518 1.25-1.068 0-1.047-1.628-1.194-3.75-.338m42.704 2.96c-1.736 4.564 3.489 8.097 7.118 4.813 3.631-3.286 1.792-7.435-3.297-7.435-2.128 0-3.07.647-3.821 2.622m2.713.045C148.29 50.043 149.073 52 151 52q2 0 2-2c0-1.927-1.957-2.71-3.333-1.333M156.732 52c-1.265 3.22-1.311 4-.235 4 .735 0 1.545-.562 1.8-1.25.264-.711.923-.101 1.527 1.414 1.062 2.666 4.328 4.478 6.099 3.384.517-.32 1.636.411 2.486 1.625 1.923 2.746 2.61 2.104 3.307-3.09.481-3.585.306-4.083-1.429-4.083-1.088 0-2.792.9-3.787 2-2.669 2.949-3.774 2.431-2.026-.95 1.894-3.663 1.897-4.05.026-4.05-.825 0-1.518.788-1.539 1.75-.023 1.008-.638.373-1.452-1.5-.777-1.788-1.816-3.25-2.309-3.25s-1.604 1.8-2.468 4m-65.065-1.333c-.367.366-.667 1.786-.667 3.155 0 2.36-.095 2.402-1.855.809-1.044-.944-2.576-1.403-3.5-1.048-2.095.804-2.065 1.216.374 5.216 2.223 3.647 4.757 3.549 2.838-.11-1.13-2.155-1.116-2.16.934-.341 2.638 2.34 4.372 1.326 3.692-2.159-.507-2.598-.485-2.613.649-.439C95.351 58.087 97 58.777 97 56.95c0-1.628-2.955-6.95-3.859-6.95-.444 0-1.108.3-1.474.667M185 51.81c0 .484.9 1.695 2 2.69s2 2.633 2 3.639 1.337 3.299 2.971 5.095c2.191 2.409 2.978 2.822 3 1.575.016-.93-.458-1.992-1.054-2.36-.595-.368-1.916-2.613-2.934-4.989-1.645-3.838-5.983-7.934-5.983-5.65m-72.5 2.606C84.103 60.97 62 82.245 54.896 109.864c-2.181 8.477-2.684 25.687-.973 33.248 3.567 15.768 9.699 26.737 21.474 38.418 15.357 15.234 31.274 21.844 52.603 21.844 21.386 0 37.348-6.641 52.5-21.844 10.203-10.237 14.367-16.697 18.865-29.269 2.985-8.34 3.135-9.481 3.135-23.761 0-13.055-.303-15.908-2.336-22-8.208-24.596-25.334-41.864-49.664-50.075-9.819-3.314-28.148-4.283-38-2.009m-44.413 1.979c-.637.768-2.704 1.686-4.594 2.04-1.889.355-4.113 1.612-4.941 2.795-2.092 2.986-1.019 3.557 1.766.941C61.589 60.977 63.628 60 64.85 60c2.439 0 7.15-2.711 7.15-4.115 0-1.382-2.627-1.039-3.913.51m10.438 1.565c-.342.553-.335 2.537.016 4.408.821 4.373-.942 5.543-4.01 2.662-3.481-3.271-4.388-.534-.995 3.007l2.754 2.875 2.761-2.206c1.519-1.213 2.994-3.021 3.278-4.018.296-1.04 1.25-1.679 2.24-1.5.948.172 1.891-.163 2.096-.743.512-1.452-7.341-5.778-8.14-4.485m100.667 6.335c-3.105 3.305-2.645 6.758.484 3.629.768-.768.935-.338.583 1.5-.545 2.851.587 3.25 4.057 1.43 2.17-1.138 2.172-1.131.273 1.007-2.955 3.328-.942 3.852 2.421.629 1.645-1.575 2.99-3.182 2.99-3.57 0-1.323-3.14-1.916-4.968-.937-1.593.852-1.804.581-1.677-2.147.184-3.958-1.356-4.528-4.163-1.541M67.574 67.568c-2.238 2.239-1.462 3.941 1.774 3.893 1.458-.022 2.652.315 2.652.75 0 .434-.45.789-1 .789s-1 .45-1 1c0 1.697 2.874 1.103 3.895-.804 1.481-2.767-.193-4.589-3.462-3.768-2.461.617-2.63.514-1.465-.889 1.823-2.197.65-3.014-1.394-.971m-10.529 3.348c-.614 1.148-2.64 2.723-4.501 3.501-1.86.778-3.885 2.352-4.499 3.498S46.303 80 45.537 80C43.667 80 40 84.787 40 87.227c0 1.077-.9 3.102-2 4.5s-2 3.742-2 5.208-.511 3.176-1.136 3.801c-.624.624-1.264 2.852-1.42 4.95-.157 2.098-.616 4.714-1.021 5.814s.685.251 2.421-1.888 3.164-4.388 3.173-5c.01-.611 1.106-2.144 2.437-3.406s2.963-3.962 3.625-6c.663-2.038 1.817-4.594 2.563-5.679s1.348-2.659 1.335-3.5c-.012-.84-.715-.124-1.56 1.59s-2.636 3.617-3.978 4.229c-1.341.611-2.439 1.741-2.439 2.51 0 .77-.675 1.959-1.5 2.644-1.759 1.46-2.078-.059-.592-2.816 1.341-2.489 8.194-9.427 11.266-11.407 1.471-.948 2.983-2.748 3.36-4 .378-1.253 2.069-3.733 3.758-5.512s2.801-3.505 2.471-3.836-1.104.339-1.718 1.487m103.886-.783c-.802 4.266-.602 6.056.732 6.568.846.325 1.831.155 2.188-.378s1.436-1.259 2.399-1.615c1.995-.736 2.394-3.701.5-3.722-.687-.007-2.262-.285-3.5-.616-1.238-.332-2.281-.438-2.319-.237m-97.449 1.896c-.442.715.415 2.135 2.141 3.546 5.038 4.12 6.216 2.561 1.487-1.97-2.027-1.942-3.111-2.413-3.628-1.576m18.525 2.953c-1.36 3.285-.617 7.028 1.062 5.349C84.507 78.893 85.486 72 84.252 72c-.555 0-1.565 1.342-2.245 2.982M188 74c-2.618 2.618-2.527 3.44.657 5.945 2.345 1.844 2.904 1.927 4.75.703 2.778-1.841 3.162-4.361 1.026-6.722-2.221-2.454-3.924-2.435-6.433.074m-98.941 1.653c-1.148 1.459-1.848 2.891-1.557 3.183.679.679 5.745-3.076 6.268-4.647.746-2.238-2.623-1.192-4.711 1.464m83.548-1.071c-1.233 3.213-.631 3.496 5.298 2.487.679-.116-3.162-4.069-3.953-4.069-.406 0-1.011.712-1.345 1.582m16.766 1.887c-.341.89-.318 1.919.051 2.289.846.846 4.144-1.167 3.879-2.367-.36-1.625-3.298-1.566-3.93.078m4.877 5.205c-2.767 1.931-2.944 3.741-.298 3.049 2.355-.616 3.285 1.363 1.321 2.811-1.16.855-.959 1.513 1.162 3.802 1.411 1.522 2.565 3.644 2.565 4.716 0 1.071.417 1.948.928 1.948 1.318 0 6.04-6.243 5.447-7.203-.271-.438-2.379-.811-4.684-.829l-4.191-.031 2.75-2.052c3.169-2.365 3.643-4.303.834-3.412-2.07.657-3.769-.931-2.1-1.963 1.424-.88 1.268-2.521-.234-2.458-.687.029-2.262.759-3.5 1.622m-104.935.333C86.562 83.116 84.24 87 86.33 87c1.7 0 6.67-3.78 6.67-5.073 0-1.109-.776-1.092-3.685.08M55 83.471C55 85.537 58.726 91 60.135 91c.556 0 .708-.919.343-2.07-.498-1.568-.15-2.203 1.432-2.617 2.311-.604 2.895-3.313.715-3.313-.756 0-2.781-.281-4.5-.625-2.531-.506-3.125-.298-3.125 1.096m21.03 1.455c-1.3 3.141-.75 6.637.886 5.626 1.42-.878 2.412-6.624 1.33-7.706-.61-.61-1.415.147-2.216 2.08M179.2 83.2c-1.79 1.79-1.475 2.514 1.324 3.049 2.983.571 4.136-.749 2.44-2.793-1.469-1.769-2.201-1.819-3.764-.256M51 90.941c0 1.068.558 2.286 1.24 2.707.837.518.433.957-1.245 1.353-3.802.898-3.704 3.692.188 5.358l3.317 1.421-4.272.741c-2.35.408-4.556 1.201-4.903 1.762s.901 2.289 2.772 3.841c3.128 2.594 3.221 2.824 1.153 2.849-1.574.019-2.25.628-2.25 2.027 0 2.105 1.476 2.72 2.342.975.279-.564.392-.451.25.25s-1.121 1.275-2.175 1.275c-1.494 0-1.854-.606-1.629-2.75.158-1.513-.149-2.75-.683-2.75-1.381 0-2.355 3.637-1.606 5.998.721 2.27 5.138 3.765 6.652 2.251 1.466-1.466 2.847-8.387 2.194-10.999-.336-1.347-.104-2.25.579-2.25.627 0 1.535-1.013 2.016-2.25.643-1.65.45-2.583-.723-3.5-1.427-1.115-1.381-1.25.425-1.25 3.211 0 3.551-1.161 1.117-3.812L53.5 91.729l2.184 1.135C58.513 94.335 59 94.296 59 92.598c0-.771-1.417-1.896-3.149-2.5-4.295-1.497-4.851-1.401-4.851.843m32.869.569c-2.348 1.275-4.445 4.247-3.596 5.096.776.776 6.727-3.728 6.727-5.091 0-1.798.167-1.798-3.131-.005m-13.264 1.078c-.333.866-.591 3.001-.573 4.744.03 3.002.109 3.066 1.5 1.227 1.631-2.157 1.957-6.139.573-6.994-.493-.305-1.168.156-1.5 1.023M118 92.353c0 .788.643 1.68 1.43 1.982.799.306 1.745 2.646 2.143 5.3l.712 4.751 1.802-4.443c2.909-7.175 2.591-8.512-2.087-8.788-2.916-.172-4 .152-4 1.198m12.026 1.897c.015 1.787.878 5.05 1.919 7.25l1.893 4 .081-4.168c.101-5.183.889-7.332 2.688-7.332.766 0 1.393-.675 1.393-1.5 0-1.083-1.111-1.5-4-1.5-3.852 0-3.999.121-3.974 3.25m38.322-.053c.389 2.552 2.652 3.735 2.652 1.386 0-.87.45-1.583 1-1.583s1-.45 1-1-1.122-1-2.494-1c-2.003 0-2.428.432-2.158 2.197m17.095-.779c-2.274 1.663-1.961 2.163 1.973 3.15 2.5.628 2.819.486 2.248-1-.365-.952-.664-2.145-.664-2.65 0-1.319-1.324-1.133-3.557.5M115.5 103c0 3.85.338 7 .75 7s.75-3.15.75-7-.338-7-.75-7-.75 3.15-.75 7m11.274-5.821c-.239.717.164 1.902.896 2.634.731.731 1.33 2.171 1.33 3.199s.45 2.148 1 2.488 1 1.491 1 2.559.647 1.941 1.437 1.941c1.091 0 .704-1.627-1.608-6.75-3.543-7.852-3.489-7.771-4.055-6.071M138 103c0 4 .429 7 1 7s1-3 1-7-.429-7-1-7-1 3-1 7m64.25-4.969c-2.864 1.151-2.998 3.398-.158 2.655 1.939-.507 1.976-.419.5 1.212-2.098 2.319-2.016 2.752.658 3.485 1.843.505 1.984.788.779 1.563-2.377 1.528-.339 2.432 3.197 1.418 4.148-1.189 4.829-3.882 1.212-4.79-2.541-.638-2.584-.755-.952-2.558 3.011-3.327-.047-5.071-5.236-2.985m-122.903 2.438c-2.226 1.56-3.811 5.531-2.208 5.531 1.287 0 5.861-4.647 5.861-5.955 0-1.444-1.18-1.307-3.653.424m139.683.634c-.016 1.432-.319 5.37-.672 8.75-.409 3.908-.274 6.147.37 6.147 1.455 0 2.628-13.558 1.361-15.733-.895-1.538-1.032-1.43-1.059.836m-30.49 2.244c-1.277.934-1.489 1.566-.691 2.059.633.392 1.151.405 1.151.031 0-.375.686-.113 1.524.583 1.94 1.61 2.848.727 2-1.945-.771-2.429-1.48-2.559-3.984-.728M40 104.865c0 1.026-.942 3.063-2.093 4.526C33.102 115.5 31 120.939 31 127.264v6.159l2-3.923c1.1-2.158 2-4.701 2-5.652s.45-2.008 1-2.348c1.492-.922 1.215 3.942-.439 7.716-.791 1.806-1.756 4.634-2.143 6.284l-.705 3-.806-2.5c-1.263-3.918-.016 6.857 1.305 11.283 1.383 4.629 2.75 3.133 2.773-3.033.016-4.467 1.596-5.85 2.284-2 .221 1.238.159-.45-.139-3.75-.998-11.043-.169-22.234 2.425-32.75.373-1.513.401-2.75.062-2.75-.34 0-.617.839-.617 1.865m25.682-.213c-1.199 1.198-.731 5.901.786 7.907 1.37 1.811 1.469 1.674 1.485-2.059.017-4.162-1.095-7.025-2.271-5.848M174 107.608c0 3.169 1.329 3.657 3.393 1.246 1.937-2.262 1.562-3.155-1.413-3.374-1.436-.106-1.98.48-1.98 2.128M121.5 109c-.34.55-.141 1 .441 1s1.059-.45 1.059-1-.198-1-.441-1-.719.45-1.059 1m-45.693 1.75c-1.871 2.178-3.012 5.25-1.95 5.25 1.198 0 5.143-4.46 5.143-5.814 0-1.714-1.458-1.457-3.193.564m128.693.262c-1.915.834-1.898.902.398 1.585 2.278.678 2.306.781.554 2.062-2.017 1.475-1.25 2.835 2.048 3.628 1.807.435 1.783.492-.25.597-1.313.068-2.25.76-2.25 1.661 0 1.24.743 1.412 3.75.869 2.063-.372 4.068-.857 4.456-1.077 1.41-.8-.413-3.172-2.922-3.802l-2.572-.645 2.144-1.502c4.664-3.266.465-5.912-5.356-3.376m-81.5.929c0 .518.45 1.219 1 1.559s1-.084 1-.941-.45-1.559-1-1.559-1 .423-1 .941m7.543-.01a1.086 1.086 0 0 0 .336 1.494c.501.31 1.169-.109 1.485-.931.622-1.62-.881-2.085-1.821-.563m61.46.245-2.497.942 2.469 1.863c2.824 2.13 4.128 1.776 3.703-1.006-.407-2.671-.825-2.875-3.675-1.799m-128.971 4.383c-.018 1.682.629 3.932 1.436 5 1.395 1.844 1.47 1.788 1.5-1.118.018-1.682-.629-3.932-1.436-5-1.395-1.844-1.47-1.788-1.5 1.118m31.975-1.009c-.004.577.491 1.548 1.1 2.157s1.463 2.612 1.898 4.45c.657 2.779.806 2.921.886.843.053-1.375-.798-3.85-1.891-5.5s-1.99-2.528-1.993-1.95M115.3 120c0 3.025.187 4.263.416 2.75s.229-3.987 0-5.5-.416-.275-.416 2.75m-8.258-3.859c-.023.352.848 2.602 1.936 5 1.088 2.397 1.969 3.684 1.958 2.859-.019-1.468-3.812-9.121-3.894-7.859m12.625.526c-1.324 1.324-.628 6.119 1.083 7.461 1.584 1.242 1.621 1.207.385-.369-.761-.971-1.169-3.072-.923-4.75.477-3.25.455-3.343-.545-2.342M146.5 120c0 2.095.338 3.6.75 3.345s.75-1.76.75-3.345-.338-3.091-.75-3.345c-.412-.255-.75 1.25-.75 3.345m4.509-3.806c-.005.382 1.564 2.407 3.486 4.5s3.498 3.438 3.5 2.989c.003-.449-1.566-2.474-3.486-4.5s-3.496-3.371-3.5-2.989M164.5 117c-.34.55-.141 1 .441 1s1.059-.45 1.059-1-.198-1-.441-1-.719.45-1.059 1m-76.389 2.259c1.436 1.323 2.863 3.044 3.171 3.823.45 1.14.576 1.112.639-.144.043-.859-1.384-2.579-3.171-3.823l-3.25-2.261zm35.676.741c.242 1.65.614 3 .826 3 .213 0 .387-1.35.387-3s-.372-3-.827-3-.628 1.35-.386 3m15.553-1.445c-.328.856-.163 2.526.366 3.711.822 1.843.949 1.618.878-1.552-.092-4.07-.343-4.505-1.244-2.159M177 120.5c0 2.865.69 3.048 3.495.929 1.712-1.294 1.783-1.642.5-2.453-2.563-1.621-3.995-1.075-3.995 1.524m-130.75.233c-2.337.789-4.25 2.003-4.25 2.698 0 1.567 7.743 5.18 8.76 4.089.407-.437.178-.995-.51-1.24-1.569-.561-1.645-3.982-.1-4.497.632-.21.97-.855.75-1.433q-.399-1.05-4.65.383m119.781-1.233c0 .55.436 1.675.969 2.5s.969 1.05.969.5-.436-1.675-.969-2.5-.969-1.05-.969-.5m56.719.072c-.412.419-.75 1.95-.75 3.404s-.661 3.515-1.468 4.583c-1.657 2.191-2.107 8.915-.532 7.941.55-.34 1-1.616 1-2.837 0-1.22.702-3.22 1.56-4.445 1.535-2.192 1.711-10.19.19-8.646m-28 2.117c-2.123.555-2.175 1.029-.321 2.882 2.15 2.151 3.571 1.724 3.571-1.071 0-2.538-.149-2.621-3.25-1.811m-121.193 2.534c-.856 1.222-1.557 3.1-1.557 4.174 0 1.83.156 1.805 2.5-.397 2.454-2.306 3.413-6 1.557-6-.519 0-1.644 1-2.5 2.223M135 123.5c0 .825.436 1.5.969 1.5s.709-.675.393-1.5c-.317-.825-.753-1.5-.969-1.5s-.393.675-.393 1.5m70 .417c0 .504.563 1.12 1.25 1.369.989.358.975.918-.069 2.681-1.818 3.069-.878 3.57 3.54 1.888 4.886-1.859 5.382-4.275 1.181-5.739-3.887-1.355-5.902-1.423-5.902-.199m-143.843 3.104c.579 1.662 1.949 3.5 3.043 4.086 1.783.954 1.915.823 1.276-1.271-.787-2.58-3.342-5.836-4.579-5.836-.436 0-.319 1.359.26 3.021M61 133.83c0 2.379 3.538 6.959 4.576 5.924 1.158-1.153-1.402-5.98-2.735-5.156-.685.423-.879.272-.479-.374.369-.597.213-1.368-.346-1.714S61 132.759 61 133.83m114.917-1.486c-.571 1.07-.387 4.866.255 5.262.958.593 3.828-1.969 3.828-3.418 0-.757-3.758-2.455-4.083-1.844m16.115.406c.047 1.115 2.886 4.672 3.333 4.177.213-.235.698-1.439 1.078-2.677.593-1.929.325-2.25-1.876-2.25-1.412 0-2.553.338-2.535.75M205 134.8c0 5.53 6.187 7.469 8.066 2.528 1.524-4.009.525-5.328-4.035-5.328-3.748 0-4.031.196-4.031 2.8m2.205 1.028c.362 1.878 2.926 2.28 3.503.549.205-.617-.571-1.369-1.725-1.671-1.581-.414-2.02-.137-1.778 1.122m-164.285-.414c-.845.845.212 7.586 1.189 7.586.49 0 .891-.675.891-1.5q0-1.5 3-1.5c2.057 0 3-.493 3-1.566 0-1.119-.786-1.476-2.75-1.25-1.513.174-3.212-.272-3.777-.99-.566-.718-1.264-1.069-1.553-.78m30.115 1.52c-1.381 2.581-1.357 7.383.033 6.524.588-.363.818-1.313.512-2.111-.307-.798-.159-1.205.327-.905.935.579 2.093-1.647 2.093-4.024 0-2.048-1.756-1.742-2.965.516m41.215-1.245c.963.252 2.537.252 3.5 0 .963-.251.175-.457-1.75-.457s-2.713.206-1.75.457m23 0c.963.252 2.537.252 3.5 0 .963-.251.175-.457-1.75-.457s-2.713.206-1.75.457M121.5 137c2.749 1.181 4.328 1.181 2.5 0-.825-.533-2.175-.945-3-.914-.989.036-.819.347.5.914m9.5 0c-1.828 1.181-.249 1.181 2.5 0 1.319-.567 1.489-.878.5-.914-.825-.031-2.175.381-3 .914m-28.5 3.717c-3.85 1.433-7.125 2.696-7.278 2.806-.367.263 2.632 45.664 3.044 46.076.175.175 2.679-.775 5.565-2.112 8.621-3.994 12.47-4.718 16.928-3.182l3.901 1.344.059-4.346c.106-7.886-6.541-9.515-17.559-4.302-6.822 3.227-8.16 3.555-8.16 1.999 0-.55.469-1 1.042-1s3.929-1.35 7.458-3c6.993-3.269 10.648-3.694 14.5-1.683l2.5 1.305-.147-10.374c-.081-5.706-.396-10.624-.7-10.929-.305-.304-2.566-.78-5.024-1.057-4.355-.491-8.415.507-16.879 4.151-2.062.887-3.75 1.2-3.75.694s3.344-2.312 7.43-4.014c7.567-3.15 13.242-3.874 16.536-2.111 1.356.725 1.98.602 2.392-.473.4-1.042-.622-1.772-3.608-2.576-4.903-1.321-9.799-.698-16.245 2.065-4.865 2.085-8.641 2.69-6.955 1.114.523-.488 4.508-2.1 8.856-3.582 7.616-2.595 10.563-2.755 16.844-.909 3.127.918 1.845-1.392-1.399-2.523-5.005-1.745-10.451-1.292-16.851 1.402-6.494 2.733-8 3.016-8 1.5 0-.55.63-1 1.401-1 .77 0 3.808-1.121 6.75-2.49 5.6-2.607 11.901-3.201 16.284-1.535 2.017.767 2.565.668 2.565-.465 0-4.227-11.168-4.639-21.5-.793m30.292-1.66c-2.727 1.589-1.154 4.031 1.858 2.886 1.364-.519 3.913-.949 5.665-.957 3.43-.014 17.652 5.026 17.673 6.264.02 1.256-1.785.861-7.988-1.75-3.267-1.375-7.472-2.5-9.345-2.5-5.563 0-9.655 1.141-9.655 2.692 0 .905.652 1.249 1.75.923 6.698-1.99 9.318-1.717 19.75 2.059 5.993 2.17 5.991 2.169 5.232 2.927-.33.331-4.254-.64-8.719-2.158-6.918-2.35-8.812-2.624-12.808-1.851-3.18.616-4.794 1.462-5.015 2.63-.286 1.513.054 1.589 2.812.627 1.726-.601 4.851-.864 6.944-.583 4.334.581 16.054 5.579 16.054 6.846 0 .9-1.908.265-9-2.998-7.063-3.249-17-2.643-17 1.038 0 1.587.334 1.739 1.934.883 3.637-1.946 10.167-1.145 17.236 2.113 3.757 1.731 6.83 3.537 6.83 4.013s-1.687.118-3.75-.797c-10.302-4.567-14.183-5.464-18.294-4.233L131 158.317v15.633l2.565-.975c4.238-1.611 7.42-1.135 14.855 2.22 8.309 3.75 8.098 3.621 7.259 4.459-.359.36-3.833-.812-7.72-2.603-5.542-2.555-7.864-3.127-10.763-2.655-2.033.331-4.258.677-4.946.769-.827.111-1.25 2.016-1.25 5.624 0 4.819.181 5.306 1.553 4.167 2.628-2.181 9.497-1.448 17.146 1.828l7.198 3.083.513-4.183c.564-4.615 2.59-35.72 2.59-39.781 0-2.292-.804-2.835-7.75-5.242-7.953-2.755-16.304-3.443-19.458-1.604M98 140c-.825.533-1.05.969-.5.969s1.675-.436 2.5-.969 1.05-.969.5-.969-1.675.436-2.5.969m-4.493 1.989c-.35.566.051.734.941.393 1.732-.665 2.049-1.382.611-1.382-.518 0-1.216.445-1.552.989m65.493-.596c0 .216.698.661 1.552.989.89.341 1.291.173.941-.393-.587-.951-2.493-1.406-2.493-.596M190 143c0 .55.45 1 1 1s1 .675 1 1.5.45 1.5 1 1.5 1-.413 1-.918.273-1.63.607-2.5c.458-1.193-.034-1.582-2-1.582-1.434 0-2.607.45-2.607 1m-144.75.662c-2.486 1.003-1.177 2.481 1.916 2.163 4.247-.436 5.04 1.984.92 2.808-1.736.347-3.086 1.248-3.086 2.059 0 .965.662 1.255 2 .875l4-1.134c1.996-.567 2.542-2.858 1.393-5.851-.585-1.524-4.421-2.018-7.143-.92m128.406 1.544c-.772 2.955-.164 3.346 2.976 1.916 2.533-1.154 2.563-1.261.754-2.631-2.566-1.942-3.06-1.847-3.73.715m-110.624.37c-.018 1.141 1.093 3.132 2.468 4.424 3.433 3.225 3.459.201.032-3.694-2.272-2.582-2.471-2.64-2.5-.73m-25.517 3.557c-1.625 8.513-1.049 13.137 2.526 20.267 5.783 11.536 6.663 13.028 8.851 15.005 1.159 1.048 2.108 2.398 2.107 3-.001 1.037 2.224 3.564 8.672 9.854 6.406 6.248 7.944 7.555 10.329 8.777 1.375.705 3.052 2.059 3.727 3.008.674.95 2.444 2.033 3.932 2.407 1.489.373 4.009 1.775 5.601 3.114S86.933 217 87.886 217c.952 0 2.605.661 3.673 1.468 1.067.808 2.983 1.483 4.257 1.5 1.273.018 3.298.54 4.5 1.162 1.778.919 1.64.55-.742-1.989-1.609-1.715-3.747-3.378-4.75-3.697S93 214.446 93 213.933c0-1.929 3.124-.818 6.747 2.4 2.064 1.834 4.653 3.695 5.753 4.138 1.883.757 1.854.845-.5 1.501-2.252.627-2.104.758 1.5 1.323 11.103 1.74 16.027 2.401 16.293 2.188.54-.434-6.853-4.46-9.336-5.083-2.663-.668-3.198-1.905-1.207-2.788.819-.363.733-.502-.25-.403-1.822.184-9.292-1.876-13.784-3.801-1.806-.775-3.985-1.408-4.842-1.408s-2.703-.9-4.101-2-3.312-2-4.253-2c-.94 0-2.514-.889-3.497-1.974-.983-1.086-2.715-2.27-3.85-2.63-2.362-.749-4.642-2.763-15.719-13.878C57.579 185.128 54 181 54 180.345s-1.063-2.464-2.363-4.018c-1.3-1.555-2.667-3.799-3.039-4.987-.371-1.188-1.333-2.705-2.137-3.372-.803-.667-1.461-2.197-1.461-3.399 0-1.203-.669-3.06-1.486-4.128-1.359-1.775-1.393-1.661-.396 1.327.599 1.797.799 4.427.443 5.845-.359 1.431-.146 3.182.479 3.935.619.746.953 2.165.742 3.154-.307 1.443-.69 1.206-1.938-1.202-1.109-2.138-1.481-5.283-1.295-10.948.192-5.8-.224-9.177-1.539-12.5l-1.802-4.552zm166.152-.815c-1.969 1.523-2.532 4.847-.917 5.412.749.261 1.25-.428 1.25-1.72 0-1.525.512-2.051 1.75-1.794 1.223.253 1.691 1.198 1.553 3.139-.126 1.776.234 2.633 1 2.377.658-.219 1.197-1.885 1.197-3.701 0-3.783-3.149-5.788-5.833-3.713m-127.485.949c-.725.881-1.175 3.094-1 4.918.314 3.269.336 3.283 1.63 1.016.721-1.265 1.171-3.478 1-4.918-.277-2.322-.461-2.437-1.63-1.016m17.013 1.233c.02 1.65.244 2.204.498 1.231s.237-2.323-.037-3-.481.119-.461 1.769m96.198 2.082c.334.87.607 1.995.607 2.5 0 1.766 2.771.9 3.275-1.024.613-2.344.017-3.058-2.549-3.058-1.358 0-1.758.474-1.333 1.582M161.232 155c0 1.925.206 2.713.457 1.75.252-.963.252-2.537 0-3.5-.251-.963-.457-.175-.457 1.75m7.433-.826c-1.018 3.892.216 4.142 5.262 1.066.497-.303-3.121-3.161-4.06-3.208-.349-.018-.89.946-1.202 2.142m-134.65.017c-.008.93.435 1.969.985 2.309 1.266.782 1.266-.542 0-2.5-.835-1.293-.971-1.266-.985.191m11.985-.84c0 1.648 2.41 6.649 3.205 6.649.555 0 .763-.641.463-1.423-.357-.93.474-1.779 2.393-2.448 1.616-.564 2.939-1.498 2.939-2.077 0-1.309-1.142-1.329-4.435-.077-1.667.634-2.565.634-2.565 0 0-.536-.45-.975-1-.975s-1 .158-1 .351m80.413 17.149c.001 9.9.151 13.815.333 8.699s.181-13.215-.002-18c-.183-4.784-.332-.599-.331 9.301m1.996 0c-.001 9.35.149 13.31.334 8.799.185-4.51.186-12.16.002-17-.183-4.839-.335-1.149-.336 8.201m72.173-15.748c-1.096 1.095-.582 2.248 1.001 2.248.871 0 1.395.563 1.164 1.25-.23.688-1.136 1.256-2.013 1.263-2.983.024-2.927 1.336.123 2.913 4.955 2.562 8.225 1.824 4.393-.991-1.604-1.178-1.509-1.377 1.139-2.388 1.588-.607 2.713-1.268 2.5-1.47-1.111-1.048-7.807-3.326-8.307-2.825M65 155.972c0 1.462 4.58 6.028 6.047 6.028 1.738 0-2.37-6.438-4.351-6.82-.933-.18-1.696.177-1.696.792m39.752 2.373c-6.968 3.258-9.67 5.976-3.002 3.019 7.25-3.213 14.436-5.44 16.085-4.984 6.573 1.82 6.796 1.829 4.724.172-3.108-2.485-10.18-1.772-17.807 1.793m-52.502 1.239c-2.846 1.245-4.48 3.416-2.571 3.416 2.172 0 7.321-2.603 7.321-3.701 0-1.576-.573-1.541-4.75.285m164.65.666c-.644 1.238-2.684 3.661-4.535 5.385S209 169.57 209 170.548c0 1.257 1.466.273 5-3.355 2.75-2.823 5-6.047 5-7.163 0-2.637-.649-2.569-2.1.22m-31.576.035c-.373.603-.148 1.274.499 1.489s1.177 1.03 1.177 1.809c0 .78.402 1.417.893 1.417.866 0 2.107-2.336 2.107-3.965 0-1.309-3.94-1.941-4.676-.75m-105.074.852c-.687.695-1.232 3.085-1.21 5.313l.04 4.05 1.521-2.806c1.861-3.432 1.588-8.517-.351-6.557m30.75.275c-7.549 2.857-13.436 5.934-12.169 6.361.733.246 4.469-.998 8.304-2.766 6.852-3.158 10.542-3.537 15.115-1.552 1.012.439 1.75.334 1.75-.25 0-1.1-5.327-3.232-7.899-3.161-.881.024-3.176.64-5.101 1.368m23.25-.426c-3.232 1.364-2.937 3.226.315 1.989 4.002-1.521 6.086-1.201 13.578 2.088 9.152 4.017 11.253 3.247 2.419-.887-7.623-3.568-12.95-4.609-16.312-3.19m30.782 1.953c-1.23 2.3-.204 3.18 2.794 2.396 2.465-.644 2.702-1.407.974-3.135-1.678-1.678-2.567-1.503-3.768.739M55.73 164.091c-.974.567-2.694.738-3.823.38-2.014-.64-2.02-.59-.34 2.689.942 1.837 1.987 3.565 2.323 3.84s1.109 1.4 1.719 2.5c1.588 2.864 3.786 2.466 4.381-.793.504-2.757.532-2.767 2.218-.788 1.636 1.921 1.583 2.093-1.262 4.119-1.633 1.163-2.688 2.57-2.345 3.126.414.669.991.644 1.712-.077 1.83-1.83 2.823-1.209 1.63 1.02-2.342 4.375 2.472 4.713 6.032.423 1.704-2.054.542-3.204-1.514-1.498-1.394 1.158-1.511 1.013-.958-1.188.42-1.675-.089-3.722-1.536-6.175-2.604-4.414-5.967-5.04-5.967-1.11 0 2.769-1.359 2.508-3.011-.58-.858-1.603-.532-2.164 2.027-3.487 1.677-.868 2.783-2.008 2.458-2.535-.74-1.197-1.505-1.17-3.744.134m141.101.159c-2.394 1.929-2.825 4.313-1.199 6.635 1.92 2.741 4.848 2.695 6.811-.108 2.004-2.86 1.965-3.369-.443-5.777-2.335-2.335-3.069-2.442-5.169-.75m-102.752 1.333c.048 1.165.285 1.402.604.605.289-.722.253-1.585-.079-1.917s-.568.258-.525 1.312m-25.849.606c.627 1.882 5.428 5.092 6.888 4.605.932-.311.531-1.236-1.351-3.118-2.712-2.712-6.264-3.666-5.537-1.487m37.77 3.054c-7.968 3.967-7.456 3.635-6.727 4.363.333.334 3.777-.855 7.652-2.641 6.096-2.81 7.743-3.164 12.233-2.633 3.815.452 4.894.32 4.074-.5-.613-.613-3.278-1.274-5.923-1.47-3.867-.286-6.083.279-11.309 2.881m27.441-1.786c-1.758 1.321-1.455 1.403 3.232.87 4.433-.503 6.136-.137 11.9 2.56 3.699 1.731 6.958 2.915 7.243 2.63.706-.706.604-.767-7.178-4.354-7.474-3.445-12.177-3.973-15.197-1.706m63.73.191c.193 1.006 1.175 1.988 2.181 2.181 1.321.255 1.732-.156 1.477-1.477-.193-1.006-1.175-1.988-2.181-2.181-1.321-.255-1.732.156-1.477 1.477m-15.456-.03c-.545.545 1.512 5.362 2.294 5.374.938.015 2.96-3.894 2.221-4.291-1.823-.98-4.077-1.521-4.515-1.083m-97.585 3.997c-.656 1.438-.898 3.541-.539 4.673.635 1.999.692 1.988 1.996-.365 1.507-2.721 1.855-6.923.574-6.923-.462 0-1.376 1.177-2.031 2.615m106.824 1.471c-1.267 2.367-.319 4.122 1.039 1.925.753-1.218 1.167-1.176 2.775.279 2.057 1.861 4.232 2.261 4.232.778 0-.902-5.235-5.068-6.369-5.068-.308 0-1.063.939-1.677 2.086m-117.966 1.891c1.232 2.303 4.609 4.324 6.289 3.764 1.553-.518-3.693-5.741-5.767-5.741-1.264 0-1.369.395-.522 1.977m-23.483 2.773c.396.963 1.31 3.913 2.031 6.556 1.368 5.008 3.009 7.694 4.701 7.694.546 0 .266-1.109-.622-2.465S54 186.14 54 185.003C54 182 51.297 176 49.944 176c-.71 0-.88.677-.439 1.75M188 176.826c0 1.222 4.441 5.174 5.814 5.174 1.977 0 1.336-1.736-1.449-3.927-2.767-2.177-4.365-2.633-4.365-1.247m19.658 2.173c-1.47 1.651-3.267 3.001-3.991 3.001-1.71 0-6.215 4.786-5.334 5.667.371.371 1.686-.219 2.921-1.312s3.468-2.744 4.961-3.67c2.632-1.634 5.375-5.429 4.532-6.271-.228-.229-1.618.935-3.089 2.585m-100.43 2.375c-4 1.835-7.562 3.627-7.917 3.981-1.631 1.632 3.08.357 9.108-2.464 6.441-3.014 9.402-3.319 13.831-1.425 1.005.429 1.75.318 1.75-.261 0-1.087-5.279-3.217-7.899-3.187-.881.011-4.873 1.521-8.873 3.356m27.022-2.389c-3.232 1.365-2.937 3.227.315 1.99 4.102-1.559 6.563-1.171 13.25 2.092 3.457 1.686 6.801 2.894 7.43 2.685 1.558-.52-12.002-6.825-15.745-7.321-1.65-.218-4.012.031-5.25.554m50.403 1.846c-1.803 1.992-1.088 3.775.864 2.155.831-.69 1.991-.374 3.772 1.026 3.614 2.844 4.532.612 1.019-2.479-3.397-2.988-3.567-3.009-5.655-.702M67.07 183.426c-3.394 3.613-1.542 5.4 2.04 1.969 1.589-1.523 2.89-3.135 2.89-3.582 0-1.636-2.711-.749-4.93 1.613m6.576 6.042c-2.661 2.016-.987 6.976 2.354 6.976s5.015-4.96 2.354-6.976c-2.288-1.733-2.42-1.733-4.708 0m106.521.198c-.564 1.008-1.395 1.721-1.847 1.584s-.775.2-.72.75.167 1.895.25 2.988c.12 1.594.777 1.937 3.319 1.731 2.561-.208 3.202-.724 3.348-2.693.098-1.34-.609-3.282-1.572-4.315-1.694-1.819-1.785-1.82-2.778-.045M61 191.897c0 .458.831 1.906 1.848 3.218 1.016 1.312 2.146 3.61 2.511 5.106.366 1.497 1.598 3.221 2.738 3.831 2.53 1.354 4.01.243 1.844-1.384-.856-.642-2.564-3.265-3.795-5.829C64.158 192.7 61 189.666 61 191.897m134.053 2.539c-.655.789-2.623 1.739-4.372 2.111-3.229.686-6.681 3.068-6.681 4.61 0 .466 1.681-.054 3.735-1.155 2.055-1.101 4.451-2.002 5.326-2.002s2.647-1.125 3.939-2.5c1.801-1.917 1.987-2.5.797-2.5-.854 0-2.088.646-2.744 1.436m-107.426 5.219c-1.407 2.951-1.491 3.819-.435 4.506 2.399 1.56 5.127.412 6.117-2.574.791-2.383.634-3.156-.863-4.25-2.593-1.896-2.873-1.762-4.819 2.318M165.29 198c.589 2.252-.298 2.592-2.09.8-.863-.863-1.505-.895-2.285-.115s-.632 1.961.526 4.2c1.869 3.616 4.056 4.256 2.982.873-.63-1.987-.526-2.088.92-.888.897.744 2.312 1.093 3.143.774 1.332-.511 1.312-1-.172-4.112-1.805-3.785-3.889-4.84-3.024-1.532M89 202c0 .55.477 1 1.059 1s.781-.45.441-1-.816-1-1.059-1-.441.45-.441 1m8.323 1.25c-3.657 4.062-3.914 5.115-1.076 4.403 1.775-.446 2.718-.187 3.117.854 1.165 3.035 2.636 1.357 2.636-3.007 0-5.125-1.458-5.826-4.677-2.25M153 205.5c0 4.861.361 5.282 2.6 3.042.802-.801 2.12-1.203 2.929-.893 2.038.783 1.842-.229-.717-3.689q-4.813-6.512-4.812 1.54m-47.375.625c-.844 4.219-.793 4.875.375 4.875.55 0 1.018-.787 1.04-1.75.028-1.219.51-.882 1.59 1.11 1.85 3.415 3.191 2.519 4.037-2.696.391-2.409.207-3.664-.536-3.664-.622 0-1.161.787-1.199 1.75-.054 1.393-.289 1.291-1.152-.5-1.537-3.186-3.422-2.789-4.155.875M76 204.645c0 .354.918 1.592 2.041 2.75s3.035 3.306 4.25 4.774 3.334 2.98 4.709 3.361c2.341.647 2.278.464-1-2.893-1.925-1.971-4.496-4.721-5.714-6.11-2.074-2.367-4.286-3.338-4.286-1.882m68.564 2.105c1.087 4.96 1.402 5.394 3.682 5.07 1.239-.176 2.097-.77 1.904-1.32-.192-.55-.766-.884-1.273-.742-.508.142-1.195-1.096-1.525-2.75-.331-1.654-1.229-3.008-1.996-3.008-1 0-1.224.777-.792 2.75m-28.112.683c-2.227 3.399-.425 6.815 3.365 6.377 3.519-.407 4.567-4.81 1.146-4.81-1.524 0-2.004.45-1.601 1.5.316.825.108 1.5-.463 1.5s-.893-1.012-.715-2.25c.238-1.661.911-2.188 2.569-2.012 2.57.273 3.036-1.221.665-2.131-2.582-.991-3.291-.731-4.966 1.826m20.238-1.683c-1.138 1.996-1.695 8.25-.735 8.25.575 0 1.045-.486 1.045-1.079 0-.685 1.123-.833 3.069-.406l3.068.674-2.089-4.094c-1.988-3.898-3.417-4.994-4.358-3.345M126 209.941c0 2.168.45 4.219 1 4.559s1-.139 1-1.063c0-1.394.261-1.465 1.524-.417 1.979 1.643 3.139.483 1.496-1.496-1.02-1.229-1.02-1.819 0-3.048.696-.838.987-1.803.647-2.143s-1.305-.049-2.143.647c-1.042.865-1.524.91-1.524.142 0-.617-.45-1.122-1-1.122s-1 1.773-1 3.941m23.998 7.081c-1.784 1.128-2.111 1.053 6.002 1.386 3.709.152 7.234-.228 8.209-.886 1.374-.927.295-1.182-5.501-1.3-3.966-.081-7.885.279-8.71.8"/><path fill="#1976D2" fill-opacity=".474" fill-rule="evenodd" d="M119.637 32.2c-3.416 1.243-1.893 2.742 2.863 2.816 1.65.026 3.874.708 4.941 1.516 2.203 1.666 8.128 1.975 9.056.472.339-.547-.422-1.39-1.691-1.872-2.116-.804-8.923-3.028-11.306-3.694-.55-.154-2.288.189-3.863.762m18.885.713c-1.933.755-1.928.799.185 1.93 1.189.636 2.725 1.157 3.413 1.157s2.248.937 3.467 2.082 4.173 2.343 6.565 2.662c3.968.529 4.228.434 2.976-1.082-.755-.914-1.931-1.662-2.613-1.662s-2.939-1.35-5.015-3c-3.858-3.066-5.496-3.447-8.978-2.087m-37.17 2.059c-4.341 1.795-3.176 2.768 4.107 3.428 7.564.685 12.541.087 12.541-1.508 0-.958-.604-1.094-6-1.346-1.925-.09-4.625-.456-6-.813s-3.466-.25-4.648.239M158.5 39c.995 1.1 2.399 2 3.12 2 .72 0 1.804.924 2.409 2.054 1.032 1.929 6.573 5.934 8.221 5.942 1.802.009.392-2.149-4.5-6.887-3.846-3.725-6.027-5.088-8.155-5.097-2.842-.012-2.866.032-1.095 1.988m-69.121 1.733c-3.948.28-5.665.955-7.5 2.952L79.5 46.274l3-.728c1.65-.4 5.025-.811 7.5-.913 4.891-.202 9.407-2.166 8.469-3.683-.323-.523-1.348-.867-2.278-.765s-3.995.348-6.812.548m28.695 5.961c-.936 3.389-.382 6.436.646 3.556.246-.687 1.272-1.25 2.28-1.25s2.034.563 2.28 1.25c.245.688.752.968 1.126.624 1.004-.925-2.565-7.874-4.044-7.874-.697 0-1.727 1.662-2.288 3.694M126 47c0 2.2.45 4 1 4s1-1.8 1-4-.45-4-1-4-1 1.8-1 4m4.667-3.333c-1.311 1.311-.657 6.123.915 6.726 2.293.88 4.418.744 4.418-.282 0-.489-.787-.826-1.75-.75-1.237.098-1.75-.594-1.75-2.361 0-2.016.447-2.452 2.308-2.251 1.332.143 2.047-.174 1.691-.75-.693-1.123-4.808-1.357-5.832-.332M114 45.5c0 1.815-1.656 1.997-2.28.25-.245-.687-.805-.915-1.244-.506s-.05 1.569.863 2.579c.914 1.009 1.661 2.362 1.661 3.006S113.45 52 114 52s1-1.088 1-2.418.273-3.13.607-4 .109-1.582-.5-1.582-1.107.675-1.107 1.5m24.75-.923c-.412.416-.736 2.144-.718 3.84.029 2.859.133 2.949 1.433 1.233 1.502-1.982 3.535-1.459 3.535.909 0 .793.401 1.441.891 1.441 1.145 0 1.982-6.961.915-7.62-.443-.274-.806.204-.806 1.061 0 2.057-3.758 2.029-4.177-.031-.178-.874-.661-1.249-1.073-.833m-34.021 1.555c-2.48 1.388-2.137 2.75 1.021 4.05 2.172.895 2.382 1.22 1 1.549-2.025.481-2.38 2.269-.45 2.269 1.454 0 3.7-1.958 3.7-3.225 0-.453-1.237-1.313-2.75-1.91-2.487-.982-2.565-1.154-.816-1.803 1.063-.394 1.504-.983.978-1.307-.525-.325-1.733-.155-2.683.377M120 46.5c0 .825.436 1.5.969 1.5s.709-.675.393-1.5c-.317-.825-.753-1.5-.969-1.5s-.393.675-.393 1.5m56 .5c.589 1.1 1.495 2 2.015 2 .519 0 1.828 1.731 2.907 3.847 1.964 3.851 6.698 7.867 7.879 6.685.346-.345.069-1.394-.615-2.33s-2.018-3.021-2.965-4.633c-2.464-4.197-6.208-7.569-8.402-7.569-1.579 0-1.714.328-.819 2m-27.8.2c-2.159 2.159-1.439 5.702 1.298 6.389 3.747.94 5.502-.16 5.502-3.451 0-3.842-4.117-5.621-6.8-2.938m1.918.727c-1.538.951-1.153 4.229.564 4.801.651.216 1.654-.487 2.229-1.562 1.243-2.322-.677-4.547-2.793-3.239M76 49.902c-.825.463-3.168 1.141-5.207 1.507-2.257.405-4.511 1.688-5.764 3.281-2.628 3.341-1.988 3.935 2.062 1.914C68.86 55.722 71.259 55 72.422 55 74.341 55 82 50.573 82 49.464c0-.779-4.404-.457-6 .438m81.161 1.645c-1.787 3.92-1.337 5.234.839 2.453l1.956-2.5.022 3.25c.014 2.084.516 3.25 1.401 3.25 1.493 0 4.281-5.674 3.279-6.675-.336-.336-.895.128-1.241 1.032-.955 2.486-2.417 1.968-2.417-.857 0-3.262-2.345-3.233-3.839.047m-65.494-.88c-.367.366-.667 1.707-.667 2.978 0 2.104-.225 2.21-2.504 1.171-1.378-.627-2.788-.857-3.135-.511-.816.817 1.608 6.695 2.76 6.695 1.158 0 1.109-.702-.226-3.196-1.067-1.993-1.025-2.008 1.223-.434 3.29 2.304 3.873 2.065 3.95-1.62.064-3.065.129-3.122 1.152-1 .597 1.237 1.467 2.25 1.933 2.25 1.182 0 1.07-.667-.679-4.05-1.519-2.938-2.54-3.551-3.807-2.283M119 54.028c-9.013 1.11-21.277 5.211-29 9.696-7.961 4.625-21.322 17.81-25.855 25.516-23.055 39.193-8.34 87.769 32.355 106.806 36.956 17.289 81.381 1.35 98.996-35.517 5.244-10.975 6.836-18.377 6.888-32.029.053-13.867-2.161-23.482-7.934-34.455-14.501-27.564-45.039-43.76-75.45-40.017m47.75 2.089c-2.472 1.842-4.06 4.811-1.84 3.439 1.396-.863 4.09.488 4.09 2.051 0 2.8 2.005 1.302 2.15-1.607.083-1.65.195-3.525.25-4.167.17-1.98-1.772-1.861-4.65.284m1.833.749c-.431.697-.513 1.537-.183 1.867.895.895 1.871-.421 1.387-1.871-.338-1.016-.574-1.016-1.204.004M191 56.809c0 .507.9 2.065 2 3.464 1.1 1.398 2 3.281 2 4.184 0 2.569 2.817 7.374 5.01 8.549 2.471 1.322 2.683-.48.551-4.675-.791-1.557-1.935-4.208-2.542-5.89-1.031-2.857-7.019-7.662-7.019-5.632M78.588 58.858c-.292.471-.131 2.248.356 3.948.677 2.359.525 3.39-.643 4.359-1.274 1.057-1.844.883-3.398-1.037-1.027-1.268-2.293-2.154-2.812-1.967s.143 1.595 1.471 3.131c2.039 2.358 2.733 2.62 4.474 1.689 1.133-.606 2.465-2.168 2.96-3.47.596-1.567 1.848-2.477 3.702-2.69L87.5 62.5l-3.618-2.25c-4.017-2.498-4.528-2.632-5.294-1.392m-16.703 2.959c-1.312 1-3.869 2.413-5.682 3.141-2.944 1.182-7.053 6.525-5.902 7.676.246.247 1.807-.695 3.468-2.093S57.546 68 58.471 68c.926 0 2.998-1.315 4.606-2.923 4.519-4.52 3.635-6.938-1.192-3.26M80 61c0 .55.477 1 1.059 1s.781-.45.441-1-.816-1-1.059-1-.441.45-.441 1m99.466 4.036c-3.059 3.193-2.411 4.092.875 1.214 1.921-1.682 1.968-1.673 1.217.25-1.846 4.73-1.284 5.476 2.942 3.905 1.923-.716 1.933-.667.248 1.257-2.478 2.829-.874 3.805 1.928 1.173 3.412-3.206 3.071-5.234-.753-4.47-2.966.594-3.055.511-2.442-2.279.899-4.094-.699-4.512-4.015-1.05M132.017 66.5c-.757 2.274-.55 9.433.25 8.633.474-.474.686-2.835.472-5.247s-.539-3.936-.722-3.386M67.18 68.284c-1.595 1.92.173 4.056 2.695 3.256 2.337-.742 2.799.386.925 2.26-.782.782-.824 1.2-.122 1.2 1.735 0 3.597-2.842 2.956-4.512-.432-1.126-1.332-1.352-3.362-.847-2.5.623-2.637.527-1.4-.975.755-.916.923-1.666.373-1.666s-1.479.578-2.065 1.284M121.031 71c0 1.375.436 3.175.969 4 .767 1.187.969.979.969-1 0-1.375-.436-3.175-.969-4-.767-1.187-.969-.979-.969 1m39.689-1.387c-.396.396-.72 2.234-.72 4.085 0 3.911 2.574 5.605 4.505 2.964.668-.914 1.68-1.662 2.248-1.662 1.604 0 2.267-2.738.932-3.846-1.707-1.417-6.114-2.391-6.965-1.541m-35.146 2.054c-.352.917-.175 2.132.393 2.7.711.711 1.033.19 1.033-1.667 0-3.085-.499-3.447-1.426-1.033m3.505-.084c.048 1.165.285 1.402.604.605.289-.722.253-1.585-.079-1.917s-.568.258-.525 1.312m-46.838 1.403c-1.51 2.418-1.649 9.014-.19 9.014 1.552 0 4.135-6.84 3.426-9.073-.779-2.454-1.677-2.438-3.236.059M205 73.214c0 1.467.45 2.946 1 3.286s1 2.189 1 4.109c0 3.857 2.439 9.391 4.139 9.391.689 0 .859-1.193.465-3.25-.343-1.787-.84-5.035-1.104-7.218-.294-2.428-1.454-4.941-2.99-6.477l-2.51-2.51zm-139.534 1.75c1.562 1.631 3.295 2.684 3.851 2.34.573-.354-.167-1.638-1.709-2.964-3.903-3.358-5.509-2.89-2.142.624m23.457-.041C85.746 78.101 85.184 80 87.423 80 89.399 80 95 75.129 95 73.411c0-2.335-2.969-1.596-6.077 1.512m100.192-1.291c-4.05 2.837-1.548 8.196 3.262 6.988 2.985-.749 3.972-3.089 2.378-5.64-1.693-2.711-3.185-3.068-5.64-1.348m-17.08 1.302c-1.504 2.81-1.345 3.066 1.906 3.066 3.451 0 4.725-1.493 3.023-3.544-1.674-2.016-3.699-1.82-4.929.478m-120.184.09C47.982 77.282 40 85.962 40 87.91c0 1.149.245 2.09.543 2.09 1.353 0 11.436-10.815 12.367-13.264.572-1.505.939-2.722.815-2.706s-.967.464-1.874.994m137.701.567c-1.071 1.071-1.333 2.028-.723 2.638 1.537 1.537 4.671.424 4.671-1.659 0-2.565-1.893-3.034-3.948-.979m5.198 6.167c-3.156 1.957-3.672 3.669-.834 2.769 2.274-.722 3.783 1.174 2.197 2.76-2.306 2.306-.989 2.831 2.137.852 3.674-2.327 4.155-3.636 1.336-3.638-1.053 0-2.103-.563-2.333-1.251-.231-.687.068-1.25.664-1.25.595 0 1.083-.45 1.083-1 0-1.403-1.072-1.212-4.25.758M76.241 82.986c-1.666 2.668-1.659 9.317.009 8.772C78.772 90.934 80.502 81 78.124 81c-.354 0-1.201.894-1.883 1.986m10.214.469C83.881 86.028 83.272 88 85.05 88c2.059 0 6.909-3.054 7.956-5.01.935-1.748.75-1.99-1.516-1.99-1.42 0-3.685 1.105-5.035 2.455m92.143-.292c-1.922 2.745-1.423 3.509 2.366 3.617 3.231.092 3.663-.74 2.001-3.846-1.34-2.504-2.495-2.443-4.367.229m-123.195-.005c-.323.522.467 2.49 1.755 4.373l2.342 3.423.779-2.977c.464-1.774 1.44-2.977 2.416-2.977 2.554 0 .838-1.091-3.121-1.983-2.122-.479-3.824-.421-4.171.141m2.253 2.387c.304.794.956 1.195 1.449.89 1.24-.766 1.126-1.132-.554-1.777q-1.45-.557-.895.887m-6.195 4.518c-.361.585.062 1.858.941 2.829 2.189 2.419 2.024 2.925-1.075 3.292-3.58.423-3.973 2.201-.806 3.644C53.672 101.263 55 101.314 55 100c0-.55-.648-1-1.441-1s-1.759-.515-2.149-1.145c-.489-.791.118-.987 1.965-.634 3.687.705 4.283-.881 1.48-3.931L52.5 90.729l2.305 1.2c1.268.66 2.843 1.019 3.5.797s-.245-1.151-2.005-2.065c-3.773-1.958-3.982-1.984-4.839-.598m163.706 6.314c-.03 7.631 1.21 13.58 2.55 12.239.364-.364.781-4.001.928-8.084.215-6.007-.089-7.858-1.591-9.714-1.846-2.279-1.856-2.248-1.887 5.559M70.241 91.986c-1.469 2.352-1.646 7.646-.284 8.488 1.485.917 4.287-5.364 3.605-8.082-.731-2.913-1.683-3.029-3.321-.406m12.672-.704c-2.023 1.553-4.024 5.274-3.251 6.047C81.17 98.836 88 93.297 88 90.566c0-1.018-3.463-.531-5.087.716m34.385.383c-.261.682-.184 1.711.172 2.287.361.583-.155 1.048-1.161 1.048-1.585 0-1.809.931-1.809 7.5 0 5.999.3 7.5 1.5 7.502 1.206.001 1.433-1.184 1.159-6.038-.21-3.723.122-6.597.864-7.491 1.87-2.255 2.977-.767 2.977 4.003 0 2.396.515 4.529 1.143 4.738.852.284.843.943-.035 2.584-.941 1.758-.909 2.202.157 2.202 1.5 0 3.735-1.95 3.735-3.259 0-.472-.45-.581-1-.241s-1 .141-1-.441c0-1.72 5.714-1.246 6.396.531.336.875.357 2 .048 2.5-.309.501.702.903 2.247.895 1.674-.009 2.325-.324 1.611-.777-1.531-.973.556-14.424 2.154-13.885.595.201 1.044 3.429 1.044 7.516 0 5.704.306 7.164 1.5 7.16 1.2-.003 1.5-1.505 1.5-7.502 0-5.333-.361-7.498-1.25-7.498-.687.001-1.25-1.176-1.25-2.616 0-2.225-.336-2.526-2.25-2.013-1.238.331-3.262.609-4.5.616-2.85.018-2.916 2.239-.274 9.194 2.682 7.058 1.855 7.294-.991.283-1.58-3.893-2.533-5.204-3.115-4.286-.556.876-.845.261-.855-1.822-.014-2.95-.27-3.169-4.128-3.537-2.663-.254-4.281.044-4.589.847M197 91c-1.302.841-1.283.971.143.985 1.906.017 3.051 2.347 2.219 4.515-.317.825-.281 1.5.079 1.5 1.073 0 5.493-5.398 5.527-6.75.038-1.492-5.764-1.674-7.968-.25m-29.393.826c-.851 1.377.539 5.174 1.895 5.174 1.506 0 4.664-4.5 3.779-5.385-.904-.905-5.08-.749-5.674.211m18.018.672c-1.869 1.401-1.587 5.215.299 4.049.516-.319 1.225-.115 1.576.453.787 1.273 2.5.335 2.5-1.368 0-.687-.562-1.99-1.25-2.895-1.088-1.431-1.494-1.462-3.125-.239M41.2 93.2c-.66.66-1.2 1.701-1.2 2.313s-1.35 2.406-3 3.987c-2.193 2.101-3 3.798-3 6.31 0 2.94.216 3.255 1.5 2.19.825-.685 1.5-1.795 1.5-2.467s.946-2.079 2.102-3.126c1.157-1.046 2.732-3.118 3.5-4.605 2.378-4.598 1.494-7.498-1.402-4.602m159.31-.184c.346.559 1.047.758 1.559.441 1.387-.857 1.129-1.457-.628-1.457-.857 0-1.276.457-.931 1.016m2.234 5.148c-1.516.554-2.513 1.401-2.215 1.883.303.491 1.731.425 3.241-.15l2.7-1.026-2.235 2.379c-2.977 3.169-2.829 3.731 1.015 3.856l3.25.107-2.75 1.086c-1.512.598-2.75 1.45-2.75 1.894 0 1.086 1.1 1.017 4.896-.307 3.73-1.3 3.612-3.248-.223-3.702-3.012-.357-3.379-1.353-1.173-3.184 1.819-1.51 1.98-4.03.25-3.921-.687.043-2.49.532-4.006 1.085M80.5 99.155c-2.741 1.499-4.5 3.869-4.5 6.062 0 1.688.224 1.719 2.805.384 2.298-1.189 5.195-5.174 5.195-7.148 0-.739-1.367-.465-3.5.702m43.651 1.413c-1.626 3.568-1.366 4.4.447 1.432 1.448-2.37 1.503-2.383 1.058-.25-.356 1.711-.012 2.25 1.438 2.25 2.398 0 2.415-1.107.057-3.826l-1.849-2.132zm64.599 1.824c-2.481 1.883-2.171 3.285.895 4.055 3.285.825 4.407-.267 3.283-3.197-.987-2.573-1.721-2.723-4.178-.858M46 104.427c0 .786 1.186 2.361 2.635 3.5 2.966 2.333 5.229 2.819 3.516.755-.807-.972-.693-1.891.434-3.5 1.496-2.135 1.441-2.182-2.528-2.182-2.848 0-4.057.425-4.057 1.427m18.591 1.065c-.839 3.343 2.103 10.606 3.44 8.492 1.355-2.143 1.123-7.197-.423-9.234-1.773-2.335-2.275-2.212-3.017.742m-16.081.524c.346.559 1.047.758 1.559.441 1.387-.857 1.129-1.457-.628-1.457-.857 0-1.276.457-.931 1.016m125.097-.19c-.77 1.247.481 5.174 1.649 5.174 1.272 0 3.669-3.068 3.712-4.75.035-1.379-4.547-1.741-5.361-.424m-98.534 4.809c-2.065 2.625-2.806 6.365-1.26 6.365 1.468 0 6.187-5.572 6.187-7.305 0-2.536-2.58-2.045-4.927.94m145.386-1.37c-.377.971-.469 2.59-.205 3.598s-.12 2.914-.852 4.235c-1.56 2.815-1.758 6.791-.441 8.873 1.621 2.563 2.297.882 4.618-11.471.355-1.89.009-3.74-.936-5-1.398-1.863-1.547-1.879-2.184-.235M34.078 116.16c-3.076 6.156-3.937 11.191-2.107 12.322.534.33 1.284-.656 1.666-2.191.383-1.535 1.746-4.771 3.03-7.19 2.369-4.467 3.088-9.101 1.411-9.101-.507 0-2.307 2.772-4 6.16m172.172-5.454c-1.238.238-2.25.901-2.25 1.472 0 .62 1.108.783 2.75.405l2.75-.634-2.394 1.888c-2.691 2.123-2.114 4.14 1.203 4.208 1.897.039 1.788.235-.809 1.459l-3 1.414 3.923-.209c4.75-.253 5.791-2.297 1.92-3.769l-2.82-1.072 2.382-1.797c1.332-1.004 2.073-2.298 1.68-2.934-.714-1.155-1.324-1.204-5.335-.431m-162.559 2.368c-.54 2.063 2.254 5.926 4.286 5.926 1.601 0 4.291-4.859 3.636-6.566-.832-2.167-4.034-1.371-4.334 1.077-.134 1.094.011 1.427.322.739.773-1.709 2.399-1.579 2.399.191 0 1.921-1.439 2.711-3.499 1.921-1.126-.432-1.531-1.423-1.229-3.003.555-2.905-.831-3.155-1.581-.285m78.538-.886c.618 1.854 2.771 2.161 2.771.395 0-.87-.713-1.583-1.583-1.583-.871 0-1.406.534-1.188 1.188m7.771.312c0 .825.675 1.5 1.5 1.5s1.5-.675 1.5-1.5-.675-1.5-1.5-1.5-1.5.675-1.5 1.5m61.75-.811c-2.134.558-2.342 3.311-.25 3.311.825 0 1.5.45 1.5 1s.675 1 1.5 1q1.5 0 1.5-3c0-2.973-.557-3.276-4.25-2.311M62 116.035c0 3.096 2.516 7.965 4.115 7.965 1.479 0 .989-6.407-.672-8.777-2.157-3.081-3.443-2.777-3.443.812m24.3.625c-.422 1.1.263 2.377 2.032 3.787 3.345 2.668 3.409 3.928.168 3.308-1.375-.263-2.5-.09-2.5.384 0 1.412 5.742.975 6.3-.48.662-1.723-.238-3.064-3.05-4.544-1.237-.652-2.25-1.62-2.25-2.15 0-1.422 3.748-1.175 4.338.285.301.747.536.545.583-.5.105-2.324-4.734-2.402-5.621-.09m9.735 1.39c1.23 1.727 1.951 3.895 1.662 5-.323 1.235-.006 1.95.865 1.95.808 0 1.139-.615.803-1.492-.315-.82.359-3.07 1.498-5 1.138-1.929 1.665-3.508 1.171-3.508-.495 0-1.185.9-1.534 2s-1.097 2-1.661 2-1.262-.9-1.549-2c-.288-1.1-1.176-2-1.975-2-1.111 0-.942.715.72 3.05m9.228 1.772c-1.184 2.848-1.727 5.178-1.208 5.178s.945-.675.945-1.5c0-2.073 3.682-1.89 4.875.242 2.082 3.719 1.914.423-.213-4.208l-2.247-4.89zm9.237.178c0 2.75.45 5 1 5s1-2.25 1-5-.45-5-1-5-1 2.25-1 5m4.996-2.635c-2.34 3.572-.52 7.635 3.42 7.635 1.631 0 3.287-.52 3.679-1.155.443-.715.275-.883-.44-.44-.786.485-1.155-.362-1.155-2.646 0-3.161-1.433-5.759-3.177-5.759-.427 0-1.474 1.064-2.327 2.365M125.5 116c.34.55.816 1 1.059 1s.441-.45.441-1-.477-1-1.059-1-.781.45-.441 1m3.5 4c0 2.75.45 5 1 5s1-2.25 1-5-.45-5-1-5-1 2.25-1 5m6 0c0 2.75.45 5 1 5s1-2.25 1-5-.45-5-1-5-1 2.25-1 5m5.2-3.8c-2.449 2.449-.861 8.8 2.2 8.8.556 0 .467-.533-.2-1.2-.66-.66-1.2-2.37-1.2-3.8s.54-3.14 1.2-3.8c.667-.667.756-1.2.2-1.2-.55 0-1.54.54-2.2 1.2m5.229.371c.864.865 1.571 2.408 1.571 3.429s-.707 2.564-1.571 3.429c-.865.864-1.1 1.571-.523 1.571.576 0 1.785-1.125 2.686-2.5 1.517-2.316 1.517-2.684 0-5-.901-1.375-2.11-2.5-2.686-2.5s-.342.707.523 1.571M150.5 120c0 2.75.338 5 .75 5s.75-1.636.75-3.635v-3.635l2.171 2.885c1.194 1.587 2.498 3.266 2.897 3.732s.885-1.447 1.079-4.251c.194-2.803.015-5.097-.397-5.097-.412.001-.762 1.464-.777 3.251l-.027 3.25-2.723-3.259c-1.498-1.792-2.948-3.255-3.223-3.25s-.5 2.259-.5 5.009m-30-2c-.805 2.535.26 6 1.844 6 .807 0 1.082-1.329.827-4-.41-4.305-1.646-5.23-2.671-2m41.813 2.5c-1.139 2.475-1.723 4.5-1.299 4.5s1.031-.675 1.348-1.5c.316-.825 1.489-1.5 2.607-1.5 1.139 0 2.031.659 2.031 1.5 0 .825.62 1.5 1.379 1.5 1.069 0 .914-1.01-.692-4.5-1.138-2.475-2.348-4.5-2.687-4.5s-1.549 2.025-2.687 4.5m14.427-.921c-.582 3.046 1.167 4.076 4.182 2.463 2.786-1.491 2.619-2.886-.487-4.067-3.341-1.27-3.128-1.362-3.695 1.604m-70.157-.713c-.431.697-.513 1.537-.183 1.867.895.895 1.871-.421 1.387-1.871-.338-1.016-.574-1.016-1.204.004m57.053.64c-.348.907.003 1.494.895 1.494 1.618 0 1.986-1.563.574-2.435-.493-.305-1.153.119-1.469.941M45.75 121.162c-3.722 1.36-3.458 3.13.767 5.145l3.517 1.677-.629-2.505c-.359-1.433-.1-3.141.606-3.992 1.484-1.788.047-1.898-4.261-.325m148.5-.079c-1.238.469-2.25 1.132-2.25 1.474 0 .738 4.219 4.362 5.133 4.41 1.184.062 1.593-4.95.477-5.845-.628-.505-2.087-.521-3.36-.039M74.736 122.25c-2.181 1.657-4.067 6.819-2.913 7.973 1.169 1.169 6.177-4.749 6.177-7.3 0-2.232-.953-2.428-3.264-.673M45.5 124c.34.55.816 1 1.059 1s.441-.45.441-1-.477-1-1.059-1-.781.45-.441 1m14.5 1.364c0 2.517 4.671 7.957 6.083 7.085 1.707-1.055-2.946-9.449-5.238-9.449-.465 0-.845 1.064-.845 2.364m145.989-.877c.697.839.965 2.56.616 3.95-.59 2.352-.484 2.417 2.33 1.436 1.622-.566 3.48-1.668 4.129-2.45.964-1.162.522-1.698-2.41-2.923-4.716-1.971-6.293-1.975-4.665-.013m-81.91 3.096c.048 1.165.285 1.402.604.605.289-.722.253-1.585-.079-1.917s-.568.258-.525 1.312m84.921-.524c0 .582.45.781 1 .441s1-.816 1-1.059-.45-.441-1-.441-1 .477-1 1.059m13.639 1.635c-.351.352-.639 1.629-.639 2.838s-.945 3.4-2.1 4.868-2.346 4.566-2.646 6.885l-.547 4.215 2.147-1.905c1.18-1.048 2.146-2.499 2.146-3.226s.898-2.794 1.996-4.595 1.998-4.485 2-5.965c.004-2.721-1.182-4.289-2.357-3.115M34.543 131.25c-.217.688-.626 2.6-.908 4.25s-.797 4.126-1.144 5.503-.117 3.851.51 5.5c1.008 2.651 1.254 2.793 2.13 1.227.545-.974.733-2.582.419-3.574-.315-.992.142-3.236 1.016-4.988 1.019-2.042 1.353-4.259.932-6.177-.671-3.057-2.247-3.985-2.955-1.741M60 132.514c0 3.921 5.018 9.802 6.822 7.997.946-.946-2.662-7.355-4.778-8.487-1.659-.888-2.044-.796-2.044.49m131.423-.389c-.764 1.236 2.394 4.875 4.232 4.875 1.23 0 1.443-.515 1.745-4.229.121-1.49-5.106-2.056-5.977-.646M175 135c0 3.494 1.844 3.935 4.443 1.063 2.131-2.355 1.289-4.063-2.002-4.063-2.046 0-2.441.486-2.441 3m30.337-1.436c-.881 2.295 1.334 6.436 3.442 6.436 4.319 0 6.002-6.29 1.971-7.37-3.557-.953-4.769-.744-5.413.934M72.526 136.95c-2.844 5.5-1.236 10.309 1.865 5.577 1.759-2.686 2.194-8.527.635-8.527-.536 0-1.661 1.328-2.5 2.95M207 136c0 1.646.518 2.065 2.25 1.82 1.238-.176 2.25-.995 2.25-1.82s-1.012-1.644-2.25-1.82c-1.732-.245-2.25.174-2.25 1.82m-105 2.341-9.5 3.315.218 3.422c.12 1.882.7 11.747 1.29 21.922 1.344 23.213 1.615 25.004 3.787 24.985 1.404-.013 1.453-.175.276-.92-1.066-.675-1.747-5.424-2.687-18.734-.692-9.807-1.286-20.587-1.321-23.955L94 142.253l9.428-3.127c10.652-3.532 13.135-3.753 18.226-1.626 4.211 1.759 4.346 1.778 4.346.598 0-1.377-5.806-3.1-10.399-3.085-2.256.008-8.376 1.505-13.601 3.328m29.744-2.177c-1.516.554-2.525 1.381-2.243 1.838s2.347.111 4.587-.769c3.455-1.357 4.95-1.419 9.843-.408 3.174.655 8.425 2.28 11.67 3.61 5.83 2.389 5.897 2.463 5.693 6.241-1.968 36.46-2.571 42.874-4.152 44.164-1.488 1.214-1.455 1.307.358.989 1.844-.323 2.089-1.595 3.138-16.34.626-8.794 1.301-20.027 1.5-24.963l.362-8.974-9.5-3.262c-9.719-3.337-16.171-3.983-21.256-2.126m-88.729 2.586c-.017 3.629.443 3.935 2.628 1.75.825-.825 2.368-1.5 3.428-1.5s1.929-.439 1.929-.975c0-.557-1.329-.709-3.101-.355-2.117.424-3.382.177-3.985-.775-.617-.975-.888-.416-.899 1.855m61.156 1.176c-4.581 1.594-8.583 3.153-8.893 3.463s.027 10.519.749 22.686c1.313 22.118 1.916 24.954 5.294 24.91.691-.009.558-.417-.321-.985-1.253-.81-1.17-.998.5-1.142 1.1-.095 2.558-.153 3.239-.128.682.024 1.016-.317.744-.758-.273-.441 1.503-1.565 3.946-2.498 4.346-1.66 10.092-1.664 13.867-.011 1.702.745 1.788-.437 1.648-22.432l-.147-23.218-3.367-1.407c-4.828-2.017-7.866-1.75-17.259 1.52m30.216-1.894c-2.751.843-3.187 1.496-3.75 5.601-.35 2.555-.637 13.181-.637 23.614 0 17.69.118 18.915 1.75 18.198.963-.423 3.467-.971 5.565-1.218 4.414-.52 13.057 2.361 12.037 4.013-.393.635-.189.777.502.35 1.46-.902 5.357.26 4.659 1.389-.284.459.326.614 1.356.345 1.709-.447 1.984-2.456 3.172-23.157.716-12.467 1.337-22.88 1.38-23.141.158-.948-14.611-6.087-18.712-6.512-2.315-.24-5.61-.007-7.322.518M111 141.588c-.825.294-3.525 1.372-6 2.395s-5.352 2.131-6.393 2.462-1.653.843-1.358 1.137 3.392-.668 6.885-2.138c6.737-2.836 11.174-3.397 16.866-2.134 2.611.58 3.074.509 1.822-.276-2.004-1.258-9.707-2.2-11.822-1.446m24.5.125c-1.1.265-2.45.919-3 1.455-.65.633.049.704 2 .203 5.116-1.314 9.752-.73 16.358 2.06 3.497 1.477 6.584 2.461 6.858 2.186.538-.538-4.328-2.727-11.396-5.127-4.389-1.49-7.059-1.681-10.82-.777m54.043.217c-.355.574.28 2.037 1.412 3.252 2.195 2.356 3.634 1.782 4.211-1.682.255-1.527-.295-2.073-2.322-2.307-1.46-.169-2.946.162-3.301.737M46.25 143.706c-1.237.238-2.25.872-2.25 1.409 0 .578 1.464.701 3.598.301 3.157-.593 3.554-.446 3.239 1.193-.198 1.027-1.255 2.029-2.348 2.227-1.094.197-2.417.764-2.939 1.261-1.568 1.49 3.873 1.046 5.969-.487 1.633-1.194 1.734-1.76.713-4-1.18-2.59-1.648-2.739-5.982-1.904M62 144.83c0 2.416 3.695 7.17 5.573 7.17 2.995 0 .326-5.913-3.624-8.027-1.614-.864-1.949-.717-1.949.857m110.751.694c-.599 3.131.339 3.772 3.665 2.508 3.074-1.169 3.303-2.577.65-3.997-2.932-1.569-3.787-1.273-4.315 1.489m-68.492 2.812c-3.432 1.19-6.244 2.47-6.25 2.844-.011.807 3.942-.317 9.489-2.698 2.954-1.268 5.696-1.586 10.5-1.22 3.779.289 5.664.158 4.502-.312-3.589-1.452-11.87-.823-18.241 1.386m28.241-1.386c-1.175.475.682.617 4.5.344 5.319-.38 7.727.004 13.25 2.112 3.713 1.417 6.746 2.243 6.74 1.835-.005-.407-3.056-1.753-6.78-2.991-6.821-2.267-14.015-2.795-17.71-1.3m-56.932 2.256c-2.787 3.98-1.515 10.845 1.367 7.372 1.638-1.973 2.5-8.191 1.244-8.968-.573-.354-1.748.364-2.611 1.596m143.844 1.044c-.902 1.787-2.706 4.391-4.008 5.786s-2.668 4.034-3.034 5.864c-.633 3.166-.56 3.272 1.482 2.179 1.181-.632 2.148-1.637 2.148-2.232s1.35-2.621 3-4.5c2.099-2.39 3-4.458 3-6.882 0-4.305-.504-4.347-2.588-.215M203.2 149.2c-.66.66-1.171 2.122-1.137 3.25.06 1.934.115 1.923.968-.2 1.624-4.039 5.62-2.765 5.021 1.6-.102.743.294 1.054.881.691 2.565-1.585.342-6.541-2.933-6.541-.88 0-2.14.54-2.8 1.2M37.934 149c-.072.275-.303 3.723-.513 7.662-.315 5.871-.049 7.576 1.474 9.457 1.847 2.28 1.858 2.245 1.893-5.842.024-5.42-.425-8.743-1.344-9.956-.759-1.002-1.439-1.596-1.51-1.321m72.566 2.397c-5.301 1.795-13.297 5.553-11.874 5.581.619.012 3.544-1.035 6.5-2.327 7.054-3.084 10.97-3.771 14.965-2.625 2.223.638 2.947.612 2.255-.08-1.706-1.706-7.618-1.98-11.846-.549m23.75-.411c-3.342 1.411-2.726 1.911 1.25 1.014 4.101-.925 8.006-.162 15.28 2.987 2.905 1.257 5.489 2.078 5.743 1.824.751-.751-12.167-5.74-16.258-6.279-2.071-.273-4.777-.069-6.015.454m54.31-.082c-.354.572.134 2.225 1.084 3.675 1.622 2.476 1.806 2.527 3.041.837 1.521-2.08 1.731-4.416.397-4.416-.505 0-1.585-.256-2.399-.568-.814-.313-1.77-.1-2.123.472M126.415 170c0 10.175.149 14.338.33 9.25s.182-13.413 0-18.5c-.181-5.088-.33-.925-.33 9.25m41.657-15.75c-1.157 3.016.033 4.041 3.265 2.812 3.148-1.197 3.401-2.597.729-4.027-2.688-1.438-3.014-1.339-3.994 1.215m-120.879 1.874c.852 2.443 1.273 2.794 1.935 1.611.466-.831 1.977-1.796 3.359-2.142 1.382-.347 2.513-1.121 2.513-1.719s-.562-.877-1.25-.618c-4.142 1.556-5.75 1.783-5.75.811 0-.587-.427-1.067-.948-1.067-.567 0-.511 1.255.141 3.124m81.22 14.376c.001 9.9.151 13.815.333 8.699s.181-13.215-.002-18c-.183-4.784-.332-.599-.331 9.301M64 154.435c0 .239.431 1.568.957 2.952.991 2.607 7.043 6.55 7.043 4.589 0-2.008-2.919-6.731-4.545-7.355-1.884-.723-3.455-.808-3.455-.186m41 4.065c-9.189 4.243-7.494 4.667 2 .5 7.2-3.16 10.873-3.673 14.066-1.965 1.09.584 1.934.635 1.934.117 0-1.135-3.507-2.126-7.5-2.12-1.65.003-6.375 1.563-10.5 3.468m28.75-2.811c-.963.252-1.75.812-1.75 1.245s1.793.309 3.985-.276c3.556-.949 4.83-.718 11.819 2.139 10.349 4.232 11.628 4.058 2.196-.297-6.993-3.229-11.6-4.026-16.25-2.811M201 156c0 .55.45 1 1 1s1 .675 1 1.5c0 .833-.889 1.5-2 1.5-3.009 0-2.406 1.408 1.184 2.763 3.308 1.249 5.28.76 2.891-.716-1.834-1.134-.598-4.185 1.387-3.423.846.324 1.538.136 1.538-.419s-1.417-1.503-3.149-2.107C201.012 154.76 201 154.759 201 156m-149.781 4.337c-1.255.697-1.998 1.551-1.651 1.898.642.641 5.149-.947 6.882-2.425 1.522-1.298-2.712-.871-5.231.527m28.409.784c-1.741 2.486-2.21 8.401-.738 9.311.944.583 4.121-5.3 4.095-7.583-.009-.742-.401-1.957-.872-2.701-.671-1.059-1.209-.849-2.485.973m105.742.129c.331 1.238.609 2.588.616 3 .033 1.811 3.828.568 4.349-1.424.762-2.913.044-3.826-3.011-3.826-2.164 0-2.465.346-1.954 2.25m-20.541 1.226c-1.454 3.192-.933 3.695 3.011 2.906 3.815-.763 3.963-1.626.652-3.796-2.422-1.586-2.549-1.556-3.663.89m-59.632 1.719c-3.467 1.667-6.122 3.213-5.9 3.436.223.222 3.423-1.009 7.112-2.735 5.56-2.602 7.568-3.057 11.734-2.656 2.936.282 4.471.131 3.692-.363-2.789-1.768-10.326-.718-16.638 2.318M133 161.99c-1.01.645.156.765 3.565.367 4.272-.499 6.177-.104 12.168 2.526 9.586 4.207 10.594 3.902 1.382-.419-7.462-3.501-14.026-4.449-17.115-2.474m-76.997 2.463c-1.756.971-2.869 1.073-3.75.342-1.559-1.293-1.582-.612-.092 2.658 1.172 2.573 3.208 3.672 2.269 1.225-.29-.754.583-1.818 2.031-2.478 1.397-.637 2.539-1.617 2.539-2.179 0-1.252.061-1.26-2.997.432m10.997.324c0 1.844 3.201 5.098 5.962 6.06 3.356 1.17 4.441.408 2.699-1.894-2.577-3.407-8.661-6.333-8.661-4.166m129.2.423c-1.835 1.835-1.429 5.607.728 6.761 2.607 1.396 4.962.326 5.692-2.584 1.056-4.205-3.457-7.14-6.42-4.177m-151.75 5.05c.389 2.338.882 5.545 1.097 7.128.442 3.256 3.005 7.622 4.476 7.622 1.284 0 1.265-3.704-.023-4.5-.55-.34-1.002-2.279-1.004-4.309-.003-3.38-3.084-10.191-4.609-10.191-.353 0-.325 1.912.063 4.25m66.55-2.808c-5.233 2.082-11.598 5.558-10.178 5.558.684 0 3.367-1.061 5.961-2.357 6.395-3.195 9.284-3.771 13.234-2.638 2.273.652 3.021.633 2.329-.059-1.711-1.711-7.649-1.976-11.346-.504m23.105-.402c-3.27 1.369-2.057 2.272 1.326.986 3.089-1.174 6.418-.569 11.853 2.154 2.081 1.042 4.894 2.317 6.25 2.833 4.466 1.698 2.573.07-3.458-2.975-6.718-3.391-12.461-4.469-15.971-2.998m62.301.112c-.391.633.124 1.763 1.146 2.509 1.57 1.149 2.076 1.14 3.271-.055.777-.778 1.109-1.907.736-2.51-.891-1.443-4.249-1.406-5.153.056m16.106 2.243c-1.479 1.94-3.509 3.787-4.511 4.105-2.355.747-5.224 5.134-4.78 7.309.292 1.434.718 1.303 2.811-.863 1.358-1.405 3.896-3.549 5.642-4.764 1.886-1.313 3.446-3.45 3.845-5.267.965-4.394.067-4.549-3.007-.52m-31.052.303c.914 3.64 1.297 3.945 3.338 2.658 2.778-1.753 2.115-4.633-1.169-5.072-2.698-.362-2.829-.217-2.169 2.414m-122.793-1.031c-.367.366-.681 1.829-.699 3.25-.031 2.529-.064 2.541-1.59.583l-1.558-2 .35 2c.205 1.168 1.282 2.133 2.59 2.32 1.86.265 2.245-.159 2.272-2.5.03-2.696.096-2.734 1.5-.879 1.1 1.454 1.468 1.567 1.468.45 0-2.579-2.855-4.703-4.333-3.224m25.574 1.319C82.82 172.26 82.555 179 83.886 179c1.5 0 4.27-6.934 3.606-9.026-.794-2.501-1.684-2.497-3.251.012m-12.025 4.589c1.132 2.483 6.447 6.095 7.468 5.074 1.149-1.149-1.034-4.779-3.705-6.16-4.22-2.182-5.132-1.919-3.763 1.086m42.284-1.897c-1.649.325-12.977 5.073-14.417 6.042-.229.154-.204.492.056.752.259.26 3.372-.906 6.916-2.591 5.355-2.544 7.348-2.99 11.784-2.632 2.937.237 4.737.113 4-.274-2.093-1.102-6.142-1.732-8.339-1.297m21 .026c-4.242 1.04-3.384 1.991 1.383 1.533 4.135-.397 6.16.063 11.708 2.659 3.689 1.726 6.888 2.959 7.108 2.739.616-.617-12.117-6.365-15.341-6.925-1.572-.273-3.758-.276-4.858-.006m54.611 2.14-2.025 2.844 3.036 2.244c3.82 2.824 5.152 1.858 1.451-1.053-2.444-1.922-2.571-2.309-1.212-3.668s1.798-1.337 4.166.215c3.435 2.251 4.468 1.216 1.365-1.368-3.232-2.691-4.401-2.556-6.781.786M61 176.5c-2.359 2.511-1.558 3.589.929 1.25 1.093-1.028 1.212-.754.67 1.546-.977 4.14.145 4.953 3.454 2.507 3.668-2.712 3.917-4.668.292-2.294-2.556 1.676-2.626 1.671-1.886-.135 2.456-5.992.779-7.385-3.459-2.874m45.186 5.656c-3.473 1.677-6.106 3.257-5.851 3.512s3.293-.966 6.752-2.712c5.238-2.644 7.107-3.096 11.185-2.704 2.872.276 4.345.121 3.563-.375-2.705-1.715-9.396-.74-15.649 2.279m26.979-2.279c-.782.496.691.651 3.563.375 4.078-.392 5.947.06 11.185 2.704 3.459 1.746 6.533 2.932 6.83 2.634.298-.297-2.335-1.901-5.851-3.565-6.329-2.993-12.963-3.9-15.727-2.148m51.992.366c-1.618 1.618-1.452 3.247.191 1.883 1.029-.854 1.777-.646 3.155.878.994 1.098 2.187 1.996 2.652 1.996 1.742 0 .748-1.933-1.998-3.888-2.153-1.533-3.125-1.744-4-.869M67.5 184c-1.581 1.65-2.452 2.986-1.937 2.968 1.052-.035 6.437-4.57 6.437-5.42 0-1.325-1.843-.321-4.5 2.452m-13.5.941c0 1.068.438 2.212.973 2.542.535.331 1.446 2.358 2.024 4.506.944 3.507 4.94 8.011 7.106 8.011 1.007 0 .059-2.924-1.621-5-.667-.825-1.489-2.664-1.826-4.088-.689-2.908-4.311-7.912-5.729-7.912-.51 0-.927.873-.927 1.941m147.405 1.559c-1.483 1.375-3.491 2.5-4.462 2.5s-2.997 1.463-4.502 3.25c-2.285 2.714-2.465 3.303-1.089 3.573.905.178 2.833-.61 4.282-1.75 1.45-1.14 3.21-2.073 3.912-2.073 1.38 0 6.454-5.564 6.454-7.077 0-1.621-1.817-.997-4.595 1.577m-87.655-.838c.688.278 1.813.278 2.5 0 .688-.277.125-.504-1.25-.504s-1.937.227-1.25.504m28.75.817c2.75.739 5.135 1.211 5.301 1.048.552-.542-6.068-2.528-8.2-2.46-1.156.038.149.673 2.899 1.412M75 190c0 .55-.675 1-1.5 1s-1.5.45-1.5 1 .436 1 .969 1 .738.6.457 1.333c-.359.934.413 1.334 2.574 1.334s2.933-.4 2.574-1.334c-.281-.733-.075-1.333.457-1.333.533 0 .969-.45.969-1s-.675-1-1.5-1-1.5-.45-1.5-1-.45-1-1-1-1 .45-1 1m105 .469c0 .894-.586 1.243-1.5.893-2.049-.787-1.893.619.25 2.246 1.162.882 1.31 1.339.441 1.36-.72.018-1.017.504-.661 1.081.443.716 1.094.678 2.059-.123 1.079-.896 1.411-.893 1.411.011 0 .649.481.884 1.068.521s.827-1.29.532-2.059c-.296-.77-.101-1.399.431-1.399.533 0 .969-.498.969-1.107s-.675-.848-1.5-.531c-.914.35-1.5.001-1.5-.893 0-.808-.45-1.469-1-1.469s-1 .661-1 1.469m-15 6.772c0 .747.54 1.899 1.2 2.559 1.672 1.672-.292 1.445-2.597-.3-1.044-.79-2.266-1.208-2.716-.93-.951.588 2.086 7.43 3.298 7.43 1.146 0 1.016-1.758-.185-2.5-.55-.34-1-1.052-1-1.582s1.139-.218 2.531.694c3.24 2.123 4.069 1.251 2.473-2.601-1.404-3.392-3.004-4.866-3.004-2.77m-98 .682c0 .508 1.125 2.261 2.5 3.895s2.5 3.39 2.5 3.902c0 1.397 4.191 4.956 6.75 5.732 3.12.947 2.81-.622-.75-3.794-1.65-1.471-3-3.305-3-4.077s-1.385-2.568-3.077-3.992c-3.181-2.677-4.923-3.266-4.923-1.666m20.962 2.169c-1.07 2.582-1.048 3.242.128 3.999 2.304 1.481 4.183.593 5.199-2.457.718-2.155.615-3.081-.417-3.734-2.397-1.519-3.595-.984-4.91 2.192M90.5 199c-.34.55-.141 1 .441 1S92 199.55 92 199s-.198-1-.441-1-.719.45-1.059 1m97.059 1.532c-1.068.807-3.198 1.468-4.734 1.468-1.698 0-4.074 1.165-6.059 2.971-2.958 2.691-3.065 2.973-1.13 3 1.174.016 3.424-.643 5-1.465 1.575-.821 3.764-1.511 4.864-1.532 2.126-.04 4.136-1.372 6.372-4.224 1.203-1.533 1.141-1.746-.5-1.718-1.029.017-2.746.692-3.813 1.5M89 202c0 .55.477 1 1.059 1s.781-.45.441-1-.816-1-1.059-1-.441.45-.441 1m8.188 1.96c-2.738 3.703-2.727 3.866.22 3.302 1.751-.334 2.524.044 2.835 1.389.282 1.217.69.589 1.192-1.836 1.285-6.205-.756-7.578-4.247-2.855m56.481-2.296c-1.003 1.003-.806 8.336.224 8.336.491 0 1.164-.706 1.495-1.569.41-1.069 1.268-1.358 2.693-.905 1.797.57 1.951.402 1.097-1.193-1.422-2.658-4.723-5.455-5.509-4.669M98.638 204.5c-.316.825-.139 1.5.393 1.5.533 0 .969-.675.969-1.5s-.177-1.5-.393-1.5-.652.675-.969 1.5m8.039-.75c-.85 1.444-1.83 7.25-1.224 7.25.336 0 .998-1.012 1.472-2.25.847-2.217.87-2.209 1.576.5.692 2.659 1.934 3.546 2.802 2 1.151-2.052 1.632-6.25.716-6.25-.56 0-1.037 1.012-1.058 2.25-.033 1.887-.267 1.726-1.452-1-1.437-3.306-2.043-3.841-2.832-2.5m38.697 3.624c.66 4.728.983 5.096 3.301 3.748 1.691-.983 1.697-1.063.075-1.092a1.785 1.785 0 0 1-1.765-1.78c-.009-.963-.496-2.425-1.083-3.25-.803-1.127-.934-.538-.528 2.374m-7.849-1.415c-1.152 1.864-2.374 6.859-1.815 7.418.291.29 1.197-.141 2.015-.959 1.216-1.216 1.767-1.255 3.025-.21 1.338 1.11 1.437.951.76-1.216-1.193-3.815-3.183-6.329-3.985-5.033m-20.858.708c-1.087 1.086-.761 4.839.533 6.133 2.153 2.153 4.8 1.437 4.8-1.3 0-1.639-.559-2.5-1.622-2.5-1.329 0-1.398.271-.378 1.5 1.016 1.225.958 1.5-.319 1.5-2.034 0-2.85-1.397-2.043-3.499.432-1.126 1.423-1.531 3.003-1.229 1.298.248 2.359.063 2.359-.411 0-1.008-5.355-1.173-6.333-.194M126 210c0 3.784 1.964 5.96 2.032 2.25.03-1.667.095-1.667 1.36 0 1.933 2.547 2.743 2.141 1.44-.72-.861-1.889-.827-2.831.143-4 .803-.967.875-1.53.197-1.53-.59 0-1.531.787-2.092 1.75-.971 1.667-1.021 1.667-1.05 0-.016-.963-.48-1.75-1.03-1.75s-1 1.8-1 4m-43-1.039c0 .528.698 1.54 1.551 2.25.853.709 3.293 2.977 5.422 5.039 2.54 2.462 4.803 3.75 6.584 3.75 2.648 0 2.593-.119-2.22-4.857C87.996 208.901 83 206.177 83 208.961m90.5 1.82c-1.1.227-2.369.761-2.819 1.185-.451.425-2.706.56-5.012.3-3.244-.366-4.755-.003-6.681 1.601l-2.488 2.073 7.874-.372c6.313-.298 8.285-.782 9.944-2.442 2.328-2.328 2.111-2.95-.818-2.345m-72.827 5.599c.911 1.628 4.365 3.839 11.019 7.056 2.19 1.058 3.917 1.268 5.5.668 2.289-.868 2.283-.885-.692-2.096-3.506-1.428-4.381-1.912-7.662-4.243-1.343-.955-3.942-2.036-5.775-2.402-2.924-.585-3.217-.461-2.39 1.017m39.827 1.969c-2.681 1.188-2.787 1.392-1 1.918 4.748 1.398 14.395 1.86 16.403.785 3.465-1.854 2.384-3.042-2.653-2.917-2.613.065-5.875-.16-7.25-.499s-3.85-.019-5.5.713M120 220.5c.685.825 2.202 1.516 3.372 1.535 1.171.02 3.253.679 4.628 1.465 2.642 1.51 6.783 1.904 9.412.895 2.478-.95.801-2.395-2.78-2.395-1.787 0-4.123-.661-5.191-1.468-1.067-.808-3.909-1.483-6.313-1.5-3.775-.028-4.203.173-3.128 1.468"/><path fill="#1976D2" fill-opacity=".848" fill-rule="evenodd" d="M119.166 32.876c-1.074.681-1.025.964.25 1.453.871.335 2.276.343 3.121.018.846-.324 2.308.087 3.25.913 2.527 2.218 5.337 2.815 8.713 1.854l3-.855-3-.69c-1.65-.38-4.478-1.339-6.284-2.13-3.685-1.615-7.059-1.825-9.05-.563M138.5 34c.34.55 1.457 1 2.482 1s3.204 1.127 4.842 2.505 4.484 2.804 6.326 3.169c3.043.603 3.224.51 1.978-1.005-.755-.918-1.815-1.669-2.356-1.669s-2.32-1.125-3.954-2.5c-2.936-2.47-10.689-3.718-9.318-1.5m-38.25 1.658c-2.511 1.022-1.154 2.298 2.5 2.351 2.063.031 5.861.142 8.441.249 4.409.181 6.814-.586 5.611-1.789-.737-.737-15.016-1.437-16.552-.811M158 38.5c.685.825 1.709 1.5 2.276 1.5s2.693 1.8 4.724 4c2.217 2.401 4.598 4 5.956 4 1.949 0 1.486-.766-3.325-5.5-3.933-3.871-6.371-5.5-8.232-5.5-2.237 0-2.452.231-1.399 1.5m-64 2.499c-.825.533-3.439.902-5.808.821-3.216-.111-4.856.4-6.472 2.016L79.556 46h2.163c1.19 0 2.472-.5 2.849-1.11.406-.657 2.093-.882 4.132-.551 3.967.643 11.189-2.157 9.055-3.511-1.603-1.018-1.937-1.003-3.755.171m25.667 2.668c-1.06 1.059-.774 2.357.458 2.083.619-.138 1.354.381 1.634 1.152.364 1.003-.073 1.249-1.539.866-1.457-.381-2.194.024-2.555 1.405-.414 1.582-.245 1.723.908.766.779-.646 2.319-.939 3.422-.651 2.406.63 2.434.441.479-3.338-1.641-3.173-1.793-3.297-2.807-2.283M126 46.5c0 1.925.36 3.5.799 3.5s.616-1.575.391-3.5-.585-3.5-.799-3.5-.391 1.575-.391 3.5m5.2-2.3c-1.505 1.505-1.556 4.462-.093 5.366.722.446.904.031.523-1.191-.666-2.138.189-3.816 2.37-4.646 1.302-.496 1.296-.582-.05-.65-.853-.043-2.09.461-2.75 1.121m-17.054 1.503c-.838 1.499-1.174 1.531-2.799.267-1.754-1.363-1.764-1.335-.2.547.905 1.091 1.805 2.846 2 3.901.228 1.24.746.444 1.464-2.25 1.192-4.47 1.057-5.184-.465-2.465m24.409 1.119c-.41 1.826-.477 3.589-.15 3.916.327.328.595-.155.595-1.071 0-.917.787-1.674 1.75-1.682 1.079-.01 1.328-.297.65-.75-.605-.404-1.325-1.41-1.6-2.235-.299-.896-.8-.163-1.245 1.822M143.5 48c-.38 1.729-.465 3.368-.19 3.643s.81-.914 1.19-2.643.465-3.368.19-3.643-.81.914-1.19 2.643m34.304.298c1.758 1.813 3.196 3.754 3.196 4.313 0 1.12 5.199 6.389 6.305 6.389 1.25 0 .729-2.881-.67-3.7-.75-.44-2.097-2.235-2.994-3.989-1.759-3.444-5.194-6.311-7.56-6.311-.95 0-.338 1.172 1.723 3.298M104 48q0 2 2 2c2.467 0 2.592 1.52.25 3.026-1.634 1.051-1.629 1.087.082.55 1.007-.317 2.02-.576 2.25-.576s.418-.9.418-2q0-2-2-2c-2.213 0-2.71-1.547-.75-2.338.747-.301.545-.536-.5-.583-1.11-.05-1.75.653-1.75 1.921m44.521-.379c-1.949 1.949-1.656 4.265.729 5.767 3.383 2.13 7.619-3.05 4.697-5.744-.942-.869-1.069-.841-.529.115 1.263 2.236-.406 5.385-2.676 5.049-2.914-.43-3.234-2.316-.804-4.745 1.134-1.135 1.644-2.063 1.133-2.063s-1.658.73-2.55 1.621m-72.962 2.911c-1.068.807-3.205 1.468-4.75 1.468-1.556 0-3.785.976-4.996 2.188-2.658 2.657-.894 3.683 2.384 1.387C69.433 54.709 71.67 54 73.167 54s3.984-1.111 5.527-2.468c2.501-2.2 2.588-2.469.806-2.469-1.1.001-2.874.661-3.941 1.469m82.026 1.303c-2.119 4.097-1.958 5.465.195 1.665l1.7-3 .337 3c.504 4.488 1.822 5.098 3.598 1.665 2.119-4.097 1.958-5.465-.195-1.665l-1.7 3-.337-3c-.504-4.488-1.822-5.098-3.598-1.665m-64.59.415c.59.688 1.755 2.15 2.588 3.25 1.273 1.682 1.263 1.483-.06-1.25-.866-1.788-2.031-3.25-2.588-3.25-.653 0-.632.445.06 1.25m-.845 2.5c-.174 2.605-1.374 2.89-3.15.75-1.19-1.434-4-2.102-4-.95 0 .951 3.027 6.45 3.551 6.45.275 0-.198-1.35-1.051-3-1.83-3.539-1.028-3.844 2.182-.829 2.741 2.575 3.623 2.044 3.043-1.83-.328-2.19-.46-2.326-.575-.591m74.1 2.194c-2.776 2.315-2.855 3.027-.262 2.349 1.259-.329 2.214.07 2.605 1.088.924 2.41 2.407.907 2.407-2.44 0-3.396-1.498-3.71-4.75-.997m1.444-.305c-.799.799.104 2.361 1.365 2.361.518 0 .941-.675.941-1.5 0-1.546-1.18-1.987-2.306-.861M192 58.319c0 .79.672 1.994 1.493 2.675s1.944 2.915 2.496 4.964c.92 3.417 4.455 7.932 5.439 6.947.229-.229-.433-2.214-1.472-4.411s-1.903-4.712-1.922-5.589c-.055-2.599-6.034-7.144-6.034-4.586M79.014 59.75c.007.962.289 2.781.627 4.041l.614 2.291 1.476-2.108c.902-1.289 2.117-1.888 3.123-1.542.905.311.296-.557-1.354-1.928-3.553-2.953-4.505-3.113-4.486-.754m-15.549 1.255c-1.119.424-2.636 1.497-3.372 2.383-.736.887-2.143 1.612-3.127 1.612-1.76 0-7.481 5.819-6.593 6.707.663.662 4.627-1.619 4.627-2.663 0-.487 1.287-1.168 2.859-1.513 2.663-.585 9.021-6.026 8.068-6.904-.235-.217-1.343-.047-2.462.378M80 61.5c0 .917.484 1.505 1.075 1.308s1.075-.785 1.075-1.308-.484-1.111-1.075-1.308S80 60.583 80 61.5m99.018 3.981c-2.626 2.795-1.725 3.469 1.153.864 2.065-1.868 2.483-.435.794 2.721-.823 1.538-.707 1.934.566 1.934.88 0 2.471-.466 3.535-1.035 2.403-1.286 2.481-.275.191 2.456-1.265 1.509-.991 1.414 1-.345 4.471-3.952 3.387-5.002-2.622-2.538-1.609.659-1.765.433-1.135-1.637 1.1-3.615 1.093-4.116-.058-4.545-.581-.217-2.122.739-3.424 2.125M72 64.651c0 .55 1.057 1.994 2.35 3.208 2.205 2.072 2.436 2.101 3.75.482 1.064-1.311 1.083-1.534.076-.928-.832.501-2.225-.05-3.75-1.483C73.092 64.677 72 64.101 72 64.651m-4.62 3.801c-.864 2.251.327 3.327 3.096 2.797 2.746-.525 3.241.547 1.274 2.753-1.063 1.192-.989 1.204.5.077C75.048 71.962 74.395 70 70.893 70c-2.351 0-2.967-.365-2.531-1.5.316-.825.35-1.5.075-1.5s-.751.653-1.057 1.452M126.986 73c-.929 19.319-.842 22.667.588 22.667.899 0 1.426-1.047 1.426-2.834 0-2.639.275-2.833 4-2.833 3.989 0 4-.011 4-3.934 0-3.737-.138-3.91-2.75-3.471-1.512.255-3.312.661-4 .903-.847.298-1.274-.759-1.324-3.279-.041-2.046-.435-5.744-.875-8.219l-.801-4.5zM64 72.885c0 .487 1.237 1.677 2.75 2.644l2.75 1.759-2.424-2.644C64.454 71.785 64 71.525 64 72.885m141 .556c0 .793.45 1.719 1 2.059s1.002 2.279 1.004 4.309c.004 4.141 4.116 11.92 4.753 8.993.203-.933-.109-2.591-.694-3.684S210 81.627 210 79.788c0-3.364-2.304-7.788-4.057-7.788-.519 0-.943.648-.943 1.441m-16.96 1.011c-1.59 1.916-.449 5.283 2.059 6.079 3.771 1.197 6.522-3.51 3.701-6.331-1.628-1.628-4.297-1.511-5.76.252m-20.471.436c-.389.629-1.036.941-1.438.693s-1.251.381-1.886 1.398c-.966 1.548-.76 2.109 1.265 3.435 1.331.873 2.87 1.586 3.421 1.586 1.202 0 10.183 15.221 9.426 15.974-.291.289-1.434-.59-2.539-1.953-1.948-2.404-2.052-2.421-3.404-.573-1.637 2.24-1.61 2.289 1.609 2.902 1.362.259 3.236.774 4.163 1.143 1.771.706 6.315 12.507 4.816 12.507-.477 0-1.153-.9-1.502-2-.728-2.294-1.596-2.504-3.3-.8-1.835 1.835-1.467 2.497 1.746 3.139 3.618.724 4.654 2.601 5.297 9.595.432 4.706.32 5.189-.836 3.608-.734-1.004-1.491-2.293-1.681-2.864-.432-1.296-3.726-.127-3.726 1.322 0 .585.787 1.342 1.75 1.683 5.115 1.814 5.769 4.439 3.567 14.317-.514 2.301-.648 2.189-1.697-1.419-1.096-3.773-1.206-3.852-2.937-2.121s-1.683 1.896 1.282 4.419l3.08 2.621-1.655 5.727c-1.721 5.955-3.39 6.798-3.39 1.714 0-2.945-1.302-3.67-3.774-2.102-.968.615-.766 1.267.843 2.723 3.66 3.312 4.145 5.118 2.334 8.679-.911 1.792-1.85 3.471-2.085 3.73-.736.812-2.287-2.367-2.303-4.721-.008-1.285-.633-2.25-1.456-2.25-2.668 0-2.719 2.021-.131 5.097 3.022 3.591 3.074 4.031.971 8.098-1.236 2.39-1.802 2.778-2.485 1.701-.486-.768-.89-2.408-.899-3.646-.008-1.285-.633-2.25-1.456-2.25-2.716 0-2.776 2.164-.137 4.918 1.655 1.728 2.406 3.366 2.013 4.39-.576 1.501-.371 1.507 2.512.068 3.026-1.509 5.158-2.138 7.803-2.299 1.53-.094 1.656-2.708.176-3.623-.591-.365-2.053.217-3.25 1.292-4.049 3.64-4.808 3.598-3.013-.166 1.509-3.163 2.234-3.63 6.517-4.198 4.72-.626 5.898-1.904 3.743-4.059-.77-.77-1.756-.399-3.455 1.3-3.341 3.341-4.858 3.032-2.977-.606 1.643-3.178 6.097-6.017 9.438-6.017 1.807 0 1.902-.276.875-2.531l-1.154-2.532-2.875 3.148c-3.394 3.716-4.2 3.432-2.674-.944 1.111-3.189 3.706-5.263 7.338-5.865 2.666-.442 2.746-.65 1.086-2.849-1.409-1.866-1.535-1.832-4.002 1.073l-2.547 3 .605-3c1.181-5.857 1.554-6.378 5.499-7.693 3.701-1.234 3.887-1.47 2.575-3.264-1.371-1.875-1.497-1.844-4.112 1.011l-2.697 2.946.589-3.434c.61-3.559 3.064-7.055 4.97-7.081.602-.009 1.741-.424 2.531-.924 1.203-.761 1.219-1.169.1-2.518-1.199-1.444-1.623-1.273-4.145 1.674l-2.81 3.283-.04-3.202c-.031-2.389.867-4.084 3.535-6.674 3.445-3.347 3.501-3.512 1.533-4.566-1.813-.97-2.136-.732-2.872 2.107-1.237 4.773-3.237 4.815-3.237.067 0-2.999.706-4.675 2.97-7.043 2.122-2.221 2.622-3.326 1.75-3.87-2.561-1.601-3.72-1.102-3.72 1.603 0 4.153-1.31 4.602-2.591.887-1.236-3.583-.118-7.146 3.072-9.794 1.282-1.063 1.347-1.508.316-2.161-2.637-1.673-3.797-.865-3.797 2.646 0 4.484-1.246 4.473-2.873-.025-1.283-3.548-.77-8.96.95-10.023 1.911-1.181.89-3.452-1.552-3.452-2.248 0-2.385.237-1.495 2.579.54 1.419.608 3.245.153 4.058-.622 1.113-1.301.413-2.742-2.829-1.053-2.37-2.708-5.18-3.678-6.247-.97-1.066-1.796-2.191-1.837-2.5-.738-5.57-2.293-8.894-3.357-7.173m21.389.662c-1.062 1.281-.997 1.84.378 3.214 1.541 1.541 1.785 1.543 3.301.028 1.817-1.818 1.207-4.792-.983-4.792-.775 0-1.988.698-2.696 1.55M49.042 77.941c-1.152 1.617-3.023 3.236-4.159 3.596-1.136.361-2.699 2.173-3.474 4.027-2.121 5.077-1.735 5.301 2.045 1.186 1.894-2.062 3.924-3.75 4.51-3.75 1.036 0 5.025-5.746 5.032-7.25.009-1.678-1.986-.573-3.954 2.191m124.522.955c-.304.493.063 2.083.816 3.535l1.369 2.638.612-2.284c.336-1.257.618-2.847.625-3.535.016-1.431-2.589-1.701-3.422-.354m-89.356 3.143c-.7 1.121-1.767 1.734-2.37 1.361-.654-.405-.899-.117-.607.711C81.821 85.78 78.368 93 76.98 93c-.539 0-.98.885-.98 1.966s-.754 3.546-1.675 5.478c-1.397 2.931-1.92 3.308-3.163 2.284-1.293-1.066-1.331-.93-.287 1.028.934 1.754.935 3.145.005 6.25-.658 2.197-1.463 3.994-1.788 3.994-1.319 0-1.411 27.275-.114 33.5 2.303 11.055 10.917 31.508 14.533 34.509 1.307 1.084 1.434.993.86-.618-.371-1.04-1.266-2.584-1.988-3.431-2.278-2.672-8.194-16.288-7.67-17.654.275-.718.048-1.306-.506-1.306-1.236 0-3.597-9.401-2.966-11.813.251-.96-.15-2.313-.892-3.006-1.706-1.593-1.777-10.32-.099-12.128 1.01-1.087.985-1.195-.13-.56-2.365 1.347-.991-11.094 1.444-13.078 1.46-1.191 1.536-1.455.309-1.075-2.488.769-.608-6.237 2.317-8.633 1.747-1.432 1.868-1.75.495-1.306-1.499.484-1.699.195-1.146-1.657.942-3.159 3.326-6.744 4.484-6.744.537 0 .977-.477.977-1.059s-.45-.781-1-.441c-1.468.907-1.239-.112 1.02-4.54 1.112-2.178 2.735-3.96 3.607-3.96 1.04 0 1.377-.548.977-1.591-.336-.875.321-2.9 1.461-4.5 1.139-1.6 1.699-2.909 1.244-2.909s-1.401.917-2.101 2.039m110.929.019c-1.849 1.127-3.098 2.315-2.774 2.638.324.324 1.222.063 1.996-.579 1.856-1.54 3.192 1.514 1.536 3.51-1.688 2.033.235 1.623 3.105-.662 1.487-1.185 1.794-1.741.758-1.374-2.225.788-3.44-2.065-1.747-4.104 1.638-1.973 1.136-1.874-2.874.571M55.654 83.75c-.255.413.581 2.061 1.857 3.661 1.791 2.247 2.283 2.488 2.155 1.058-.093-1.038.844-2.368 2.131-3.026 2.269-1.16 2.259-1.182-.875-1.809-4.06-.812-4.703-.798-5.268.116m62.894.035c-1.058 1.059-.534 4.215.702 4.23q1.25.016-.25.985c-1.116.721-.539.973 2.25.985 3.57.014 3.75-.142 3.75-3.246 0-2.917-.311-3.273-2.952-3.381-1.624-.066-3.199.126-3.5.427m-61.356 1.29c.197.591.785 1.075 1.308 1.075s1.111-.484 1.308-1.075S59.417 84 58.5 84s-1.505.484-1.308 1.075M52 90.687c0 .911.745 2.478 1.655 3.484C55.224 95.905 55.15 96 52.214 96c-1.703 0-3.362.431-3.688.957-.643 1.041 5.312 4.539 6.206 3.645.3-.3-.755-1.092-2.343-1.759L49.5 97.631l3.818-.566 3.818-.565-2.168-2.316C52.412 91.454 52.93 90.357 56 92c1.194.639 2.352.981 2.573.76s-1.167-1.15-3.086-2.065C52.245 89.149 52 89.149 52 90.687m163.377 6.81c.128 5.005.711 8.991 1.42 9.7.662.662 1.237.775 1.278.253.662-8.377.426-13.381-.742-15.7-.761-1.513-1.562-2.75-1.779-2.75s-.297 3.824-.177 8.497M199 90.896c-1.978.551-2.16.827-.872 1.322.896.344 2.126.128 2.733-.479.608-.608 1.418-.793 1.8-.412.381.382-.316 1.635-1.55 2.784-1.234 1.15-1.95 2.382-1.592 2.74.906.903 5.642-4.781 4.936-5.923-.643-1.041-1.81-1.047-5.455-.032M42.25 92.72c-.687.246-1.25.917-1.25 1.492s-1.575 2.789-3.5 4.92c-2.516 2.784-3.491 4.787-3.468 7.121.03 3.072.111 3.142 1.5 1.306.807-1.068 1.468-2.419 1.468-3.003s1.299-2.288 2.886-3.786 3.184-3.912 3.548-5.365c.747-2.974.595-3.32-1.184-2.685M114.32 103c0 3.575.182 5.037.403 3.25s.222-4.713 0-6.5c-.221-1.787-.403-.325-.403 3.25m89.18-4.432-3 1.407 3.5-.535 3.5-.534-2.75 2.13c-3.72 2.882-3.459 3.944 1 4.07 3.745.107 3.746.108 1 1.193-3.734 1.476-3.511 2.862.25 1.551 4.052-1.412 3.941-3.85-.174-3.85h-3.175l2.361-2.513c3.017-3.211 1.606-4.851-2.512-2.919M126 102c-.9 1.681-.76 2 .871 2 1.449 0 1.809-.507 1.419-2-.288-1.1-.68-2-.871-2-.192 0-.83.9-1.419 2m-75.789 2.389c.709.764 1.519 1.102 1.801.75.281-.351.919-.977 1.416-1.389.498-.412-.312-.75-1.801-.75-2.261 0-2.494.228-1.416 1.389m-4.211.423c0 .447 1.35 1.81 3 3.03 3.641 2.692 3.809 2.323.548-1.196-2.523-2.722-3.548-3.252-3.548-1.834m79.875 2.688c-.411 4.938-.283 7.5.375 7.5.412 0 .75.675.75 1.5s-.45 1.5-1 1.5-1 1.125-1 2.5.505 2.5 1.122 2.5c.774 0 .735.468-.126 1.505-.791.953-1.076 3.309-.778 6.417.466 4.845.44 4.898-1.938 3.994-1.326-.504-4.968-.85-8.095-.769l-5.685.146 7.229.666c3.976.367 7.572 1.008 7.99 1.426.418.419.614 3.603.435 7.076-.196 3.809.106 6.582.761 6.986.716.443 1.085 6.914 1.085 19.053v18.381l-2.464-1.278c-3.207-1.664-11.377-.587-18.368 2.42-2.876 1.237-5.079 2.399-4.896 2.582s3.009-.768 6.28-2.112c6.948-2.857 13.992-3.201 17.349-.85 2.175 1.524 2.547 1.524 5.126 0 1.532-.905 4.922-1.643 7.544-1.643 6.423 0 5.179-.901-1.574-1.14-3.366-.119-5.532.246-5.775.975-.214.641-.801 1.165-1.305 1.165-1.225 0-1.206-36.73.019-37.167.515-.183 1.116-2.62 1.337-5.415s.722-5.602 1.116-6.238c.471-.763.169-.948-.888-.542-1.34.514-1.473.144-.813-2.262.929-3.386.659-10.502-.429-11.311-.962-.716-1.005-10.069-.045-10.067.392.001.672-2.023.623-4.498-.075-3.7-.424-4.5-1.964-4.5-1.03 0-1.929.675-1.998 1.5m94.745 5c-.371 2.75-.903 7.25-1.183 10-.462 4.525-.371 4.824.958 3.153.807-1.016 1.259-2.39 1.005-3.053s.23-2.864 1.077-4.89c1.324-3.169 1.349-4.141.178-6.947l-1.362-3.263zM207 111.109l-3.5.628 3.5.163c3.262.152 3.371.261 1.608 1.596-1.04.787-2.39 1.611-3 1.831s-.8.731-.423 1.137c.843.91 6.199-3.905 5.685-5.112-.203-.478-1.945-.588-3.87-.243m-172.872 6.113c-2.537 5.017-3.201 7.351-2.681 9.422.54 2.152.89 2.436 1.606 1.304.504-.796.923-2.4.932-3.563.008-1.163.944-3.296 2.079-4.739 1.357-1.725 1.957-3.734 1.75-5.859-.304-3.133-.421-3.024-3.686 3.435m13.53-4.772c-.347.904.103 1.164 1.417.82 2.298-.601 2.386-.879.508-1.6-.78-.299-1.646.052-1.925.78m-3.317 2.05c.138 2.611.537 3 3.076 3 1.705 0 3.122-.623 3.412-1.5.424-1.282.256-1.302-1.154-.138-2.15 1.775-4.395.855-5.006-2.051-.347-1.647-.441-1.449-.328.689M90 114.393c0 .216.675.652 1.5.969s1.5.139 1.5-.393c0-.533-.675-.969-1.5-.969s-1.5.177-1.5.393m42.565.502c-.305.493.096 1.145.89 1.449q1.444.555.887-.895c-.645-1.68-1.011-1.794-1.777-.554m21.008 2.199c1.61 1.977 3.129 3.425 3.376 3.218s-1.071-1.824-2.928-3.594l-3.376-3.218zm11.638-1.695c.709.77 1.447 1.25 1.639 1.067.593-.564-.91-2.466-1.948-2.466-.54 0-.401.63.309 1.399m-27.544.268c-.95.949-.798 7.578.21 9.168.491.775.635-.86.343-3.897-.396-4.117-.227-5.06.793-4.43.853.528 1.052.407.582-.353-.827-1.34-1.026-1.39-1.928-.488m9.833.333c.34.55 1.068 1 1.618 1s.722-.45.382-1-1.068-1-1.618-1-.722.45-.382 1m-59.5.885c0 .487 1.155 1.642 2.567 2.567l2.567 1.682-1.682-2.567c-1.659-2.532-3.452-3.406-3.452-1.682m53.667-.218c-.911.91-.846 6.104.083 6.678.412.255.75-1.293.75-3.44s-.037-3.905-.083-3.905-.384.3-.75.667m67.833 1.296c1.589.653 1.692.931.5 1.35-3.994 1.406-4.228 1.665-1.073 1.186 1.885-.286 3.618-.71 3.85-.943.949-.949-1.04-2.551-3.086-2.486-2.106.068-2.114.102-.191.893M117.158 120c0 1.375.227 1.938.504 1.25.278-.687.278-1.812 0-2.5-.277-.687-.504-.125-.504 1.25m32 0c0 1.375.227 1.938.504 1.25.278-.687.278-1.812 0-2.5-.277-.687-.504-.125-.504 1.25m-42.658 0c-.34.55-.141 1 .441 1s1.059-.45 1.059-1-.198-1-.441-1-.719.45-1.059 1m-60.25 1.312c-1.788.537-3.25 1.543-3.25 2.235 0 1.195 5.894 3.893 6.713 3.073.214-.214-1.057-.893-2.824-1.509-3.477-1.212-3.446-1.926.111-2.611 1.249-.241 2.51-.676 2.802-.969 1.079-1.079-.391-1.17-3.552-.219m64.75.59c0 1.038 1.902 2.541 2.466 1.948.183-.192-.297-.93-1.067-1.639-.769-.71-1.399-.849-1.399-.309m-8.51 1.114c-.346.559-1.042.761-1.548.448-.505-.312-.644.15-.307 1.027s.684 1.463.772 1.302.762-1.08 1.498-2.043c.737-.963 1.086-1.75.776-1.75-.309 0-.846.457-1.191 1.016m52.915.734c2.251 2.658 4.137 2.887 5.011.609.53-1.381.385-1.438-.912-.362-1.274 1.057-1.928.952-3.773-.609L153.5 121.5zm-37.946.317c-.363.586-.389 1.336-.059 1.666s.6.02.6-.689c0-1.02.365-1.003 1.75.084 1.586 1.243 1.621 1.208.378-.378-1.607-2.049-1.795-2.097-2.669-.683m14.262.647c.271.707.847 1.286 1.279 1.286s1.008-.579 1.279-1.286c.288-.749-.245-1.285-1.279-1.285s-1.567.536-1.279 1.285m37.843-.421c.376.986.935 1.541 1.243 1.233s.001-1.114-.683-1.793c-.988-.98-1.102-.865-.56.56m36.436-.296c0 .552.338 1.037.75 1.08 5.411.552 6.299 1.661 2.412 3.016-1.739.607-3.162 1.501-3.162 1.989 0 .487 1.583.131 3.519-.792 1.935-.923 3.367-2.133 3.181-2.689-.478-1.434-6.7-3.852-6.7-2.604m16.684 5.385c-.376.98-.684 2.438-.684 3.24 0 .803-.934 2.722-2.075 4.265-1.417 1.917-1.956 3.885-1.701 6.21.311 2.835.504 3.069 1.156 1.403.98-2.505 2.285-5.208 4.24-8.785 1.085-1.984 1.267-3.553.635-5.45-.757-2.271-.989-2.401-1.571-.883M35 132.017c0 1.329-.7 4.249-1.555 6.489-1.277 3.343-1.337 4.603-.334 7.033l1.223 2.961.883-4.5c1.796-9.156 2-12.183.896-13.287-.817-.817-1.113-.471-1.113 1.304m173.81 1.711c4.231.521 4.154 3.794-.087 3.733-3.186-.047-3.616 1.072-.705 1.833 2.388.625 4.982-1.648 4.982-4.365 0-1.591-.658-1.901-3.75-1.769l-3.75.16zm-76.569 1.102c-.692.439 1.558.625 5 .412 8.485-.525 9.559-1.07 2.259-1.148-3.3-.035-6.566.296-7.259.736m-33.491 3.282L91 141.148l.132 3.676.131 3.676.619-3.5c.589-3.336 1.015-3.65 9.118-6.711 4.675-1.766 7.825-3.212 7-3.212-.825-.001-4.987 1.365-9.25 3.035m52.17-1.042c2.981 1.058 5.593 1.751 5.804 1.539.467-.466-8.642-3.639-10.152-3.536-.59.04 1.367.939 4.348 1.997m-107.826-.57c-.14 2.197 1.539 3.019 4.906 2.403l3.5-.64-3.667-.131c-2.016-.073-3.893-.694-4.171-1.382-.277-.687-.533-.8-.568-.25m117.11 3.783c2.36.934 2.75 1.716 3.065 6.144l.361 5.073.185-5.275c.169-4.819-.036-5.359-2.38-6.25-1.411-.536-2.873-.927-3.25-.869s.532.588 2.019 1.177M45 144.75c0 .412 1.575.75 3.5.75s3.5-.338 3.5-.75-1.575-.75-3.5-.75-3.5.338-3.5.75m3.5 4.848-3 1.413 2.998-.587c3.13-.613 4.122-1.144 3.419-1.832-.229-.224-1.767.229-3.417 1.006m154.535.336c-1.614 3.017-1.22 3.516.804 1.016l1.84-2.271 2.16 2.16c1.189 1.189 2.161 1.743 2.161 1.232 0-1.412-2.963-4.071-4.536-4.071-.767 0-1.859.87-2.429 1.934m17.301-.794c-.6.748-1.388 2.331-1.752 3.518-.363 1.186-1.338 2.417-2.167 2.736-1.744.669-4.863 7.51-3.858 8.464.371.353 1.185-.223 1.808-1.281s2.382-3.273 3.908-4.924c2.797-3.026 4.245-6.594 3.536-8.72-.27-.81-.708-.749-1.475.207m-182.341.36c-.688 10.391-.565 13.341.659 15.75.769 1.512 1.559 2.75 1.758 2.75.923 0-.13-15.735-1.172-17.5-.648-1.1-1.209-1.55-1.245-1M92.32 156c0 3.575.182 5.037.403 3.25s.222-4.713 0-6.5c-.221-1.787-.403-.325-.403 3.25m67.759-2.417c.048 1.165.285 1.402.604.605.289-.722.253-1.585-.079-1.917s-.568.258-.525 1.312m2.257 5.417c0 4.125.177 5.813.392 3.75s.216-5.437 0-7.5c-.215-2.062-.392-.375-.392 3.75m-115.261-4c.036.275.452 1.4.925 2.5.614 1.429.88 1.555.93.443.038-.856 1.307-2.033 2.82-2.615 2.692-1.036 2.671-1.056-.996-.943-2.06.063-3.715.34-3.679.615m154.422.995c.719 1.164 6.503 3.05 6.503 2.121 0-.429-1.576-1.264-3.501-1.855-1.926-.591-3.277-.711-3.002-.266M52.25 160.22c-1.237.597-2.25 1.478-2.25 1.958 0 .718 5.451-1.494 6.917-2.805.896-.802-2.54-.178-4.667.847m150.829-.403c-.054.894-.804 1.099-2.329.638-1.547-.467-1.938-.354-1.25.362.55.573 2.35 1.335 4 1.693 1.658.36 2.508.28 1.9-.179-.605-.457-1.357-1.506-1.671-2.331-.397-1.044-.595-1.099-.65-.183m-147.39 5.297c-.996.579-2.439.812-3.206.518-1.149-.441-1.191-.085-.236 2.011.972 2.133 1.257 2.27 1.758.843.328-.936 1.699-2.313 3.046-3.059s1.999-1.358 1.449-1.361-1.815.469-2.811 1.048m140.143 1.356c-1.292 2.834.215 5.53 3.09 5.53 3.95 0 5.535-5.15 2.144-6.965-2.928-1.566-4.001-1.272-5.234 1.435M93.32 171c0 3.575.182 5.037.403 3.25s.222-4.713 0-6.5c-.221-1.787-.403-.325-.403 3.25M197 166.5c-.993 1.197-.993 1.803 0 3 1.601 1.929 3.9 1.923 4.643-.013.575-1.497-1.186-4.487-2.643-4.487-.415 0-1.315.675-2 1.5m-152.528 3.25c.388 1.512.932 4.624 1.21 6.914.32 2.632 1.391 4.995 2.912 6.424 2.79 2.621 2.955 2.161.947-2.645-.803-1.92-1.217-4.124-.92-4.898.65-1.694-2.437-8.545-3.852-8.545-.598 0-.718 1.11-.297 2.75m114.686-.75c0 1.375.227 1.938.504 1.25.278-.687.278-1.812 0-2.5-.277-.687-.504-.125-.504 1.25m2.178 5c0 4.125.177 5.813.392 3.75s.216-5.437 0-7.5c-.215-2.062-.392-.375-.392 3.75m47.414-1.008c-5.263 5.401-6.942 8.077-5 7.965 1.596-.092 11.087-9.574 11.719-11.707 1.035-3.499-.495-2.646-6.719 3.742M58.039 170.67c.329 3.144.01 3.616-1.562 2.311-1.278-1.061-1.418-.992-.874.427.947 2.469 3.948 1.486 3.659-1.199-.243-2.255 2.101-3.157 3.08-1.184.279.564.394.451.255-.25-.14-.701-1.265-1.423-2.502-1.605-1.681-.246-2.199.132-2.056 1.5m133.628 1.997c-.367.366-.66 1.154-.652 1.75.009.595.431.426.939-.377.797-1.26 1.183-1.226 2.814.25 1.039.94 2.304 1.7 2.811 1.688.956-.023-3.632-3.917-4.662-3.956-.321-.012-.884.278-1.25.645m-130.225 3.997-2.942 2.545 2.844-1.689c2.825-1.678 2.84-1.674 2.113.645-.402 1.284-.943 2.898-1.201 3.585-.71 1.889 1.611 1.5 4.471-.75 1.399-1.1 2.122-2 1.608-2s-1.467.532-2.118 1.183c-1.752 1.752-2.412.46-1.283-2.509 1.376-3.619-.013-4.02-3.492-1.01m128.476 1.727c.78.945 2.355 2.217 3.5 2.827 1.894 1.01 1.954.955.664-.609-.78-.945-2.355-2.217-3.5-2.827-1.894-1.01-1.954-.955-.664.609m-93.839 1.192c.048 1.165.285 1.402.604.605.289-.722.253-1.585-.079-1.917s-.568.258-.525 1.312m-1.943 6.108c-.075 3.405.202 6.4.614 6.655s.618-1.631.458-4.191c-.499-7.936-.93-8.927-1.072-2.464m90.785-3.941c-1.112 1.469-1.106 1.556.034.543 1.076-.956 2-.763 4.452.928l3.093 2.134-2.424-2.677c-2.855-3.153-3.398-3.251-5.155-.928M68 183.5c-1.288 1.371-2.116 2.717-1.841 2.992s1.553-.621 2.841-1.992 2.116-2.717 1.841-2.992-1.553.621-2.841 1.992m91.843 4.001c-.189 3.026-.005 5.501.407 5.5.412 0 .75-2.476.75-5.501 0-7.099-.715-7.098-1.157.001M54 184.09c0 .806.611 2.353 1.358 3.437.746 1.085 1.907 3.664 2.58 5.731 1.045 3.214 3.465 5.742 5.496 5.742 1.143 0 .514-1.754-1.434-4-1.1-1.268-2-3.278-2-4.466s-1.35-3.453-3-5.034c-1.993-1.909-3-2.382-3-1.41m148.327 2.258c-1.555 1.291-4.035 2.642-5.511 3.002-2.821.688-7.943 6.65-5.713 6.65.682 0 2.097-.776 3.145-1.724s3.311-2.186 5.029-2.75c1.809-.594 3.92-2.394 5.016-4.276 2.247-3.862 1.829-4.054-1.966-.902M148 189.5c1.375.786 2.95 1.429 3.5 1.429s-.125-.643-1.5-1.429-2.95-1.429-3.5-1.429.125.643 1.5 1.429m6 2.5c.825.533 2.175.945 3 .914.989-.036.819-.347-.5-.914-2.749-1.181-4.328-1.181-2.5 0m-79 1c0 .55.45 1 1 1s1-.45 1-1-.45-1-1-1-1 .45-1 1m22.813-.317c.721.289 1.584.253 1.916-.079s-.258-.568-1.312-.525c-1.165.048-1.402.285-.604.604M180 193c0 .55.675 1 1.5 1s1.5-.45 1.5-1-.675-1-1.5-1-1.5.45-1.5 1m-112.294 5.75c.354.963 1.244 2.112 1.978 2.555s1.968 2.319 2.741 4.17c1.428 3.418 4.742 5.969 6.844 5.269.665-.222.004-1.39-1.556-2.745-1.492-1.298-2.713-2.998-2.713-3.778 0-1.499-5.606-7.221-7.074-7.221-.475 0-.574.787-.22 1.75m20.823 1.193c-.986 1.908-1.163 3.165-.501 3.575.562.347.962.26.889-.194-.226-1.396 1.274-5.324 2.033-5.324 1.37 0 2.028 1.323 1.197 2.408-1.035 1.351-2.226 4.592-1.689 4.592.218 0 1.051-1.313 1.851-2.918 1.044-2.093 1.15-3.223.373-4-1.685-1.685-2.51-1.315-4.153 1.861m77.436-1.009c1.582 2.956 1.265 3.263-1.496 1.454-3.277-2.148-4.037-1.288-2.011 2.274 1.256 2.207 1.481 2.338 1.011.588-.603-2.248.858-3.148 2.031-1.25.34.55 1.278 1 2.085 1 1.27 0 1.258-.402-.085-3-.853-1.65-1.781-3-2.061-3s-.044.87.526 1.934m22.508 1.424c-1.085.747-3.628 1.661-5.652 2.032s-4.723 1.59-6 2.709l-2.321 2.035 3-.612c8.799-1.794 10.727-2.417 12.529-4.048 3.404-3.081 2.208-4.708-1.556-2.116m-91.036 3.796c-1.89 2.03-2.323 2.936-1.216 2.543.954-.339 2.402.069 3.25.917 1.372 1.372 1.529 1.111 1.529-2.543 0-2.239-.141-4.071-.313-4.071s-1.635 1.419-3.25 3.154m58.001-.573c.869.869 1.356 1.943 1.082 2.386-.273.443.376 1.034 1.443 1.313 1.848.483 1.838.37-.2-2.386-1.176-1.592-2.537-2.894-3.022-2.894-.486 0-.173.711.697 1.581m-56.855.285c-.431.697-.513 1.537-.183 1.867.895.895 1.871-.421 1.387-1.871-.338-1.016-.574-1.016-1.204.004m7.893 2.209c-.362 1.142-.393 2.342-.067 2.667.325.325.591-.185.591-1.134s.45-1.448 1-1.108 1-.084 1-.941c0-2.268-1.754-1.909-2.524.516M145.5 206c.26 1.375.479 3.063.486 3.75.008.688 1.026 1.198 2.264 1.134 1.476-.076 1.693-.265.631-.548-.891-.238-2.122-1.873-2.736-3.634-.706-2.024-.943-2.282-.645-.702m-34.207.989c-.286 1.094-.919 1.742-1.407 1.441-.487-.302-.886.127-.886.952s.45 1.778 1 2.118 1 .476 1 .302c0-.173.419-1.775.93-3.559.512-1.783.695-3.243.407-3.243-.289 0-.758.895-1.044 1.989m5.747.463c-1.522 1.833-1.005 4.729.96 5.378 1.282.423 1.302.255.138-1.155-1.78-2.156-.849-4.407 2.051-4.961 2.146-.41 2.159-.451.183-.578-1.17-.075-2.669.517-3.332 1.316m19.96-.393c0 .582.45.781 1 .441.878-.543 1.41.686 1.15 2.654-.047.36.575 1.202 1.382 1.873 1.877 1.557 1.86.631-.058-3.077-1.498-2.898-3.474-3.973-3.474-1.891m-8.25 1.333c-.963.731-1.698 2.404-1.634 3.718.088 1.816.229 1.952.588.565.457-1.768.538-1.768 2.565 0 2.086 1.819 2.087 1.817.44-.607-1.222-1.799-1.367-2.775-.558-3.75 1.381-1.663.851-1.636-1.401.074m-45.75.249c0 1.349 9.595 9.67 12.194 10.577 4.071 1.419 4.634.256.958-1.979-1.69-1.028-3.988-3.033-5.107-4.454-1.81-2.302-8.045-5.513-8.045-4.144M136.158 211c0 1.375.227 1.938.504 1.25.278-.687.278-1.812 0-2.5-.277-.687-.504-.125-.504 1.25m-15.079.583c.048 1.165.285 1.402.604.605.289-.722.253-1.585-.079-1.917s-.568.258-.525 1.312m49.599.538c-1.003.583-2.984.768-4.404.412-2.802-.704-8.274 1.091-8.274 2.713 0 .591 1.286.747 3.125.379 1.719-.344 4.819-.625 6.889-.625 2.276 0 4.698-.778 6.125-1.967 2.217-1.847 2.239-1.967.361-1.969-1.1-.002-2.82.474-3.822 1.057M102 217.5c.685.825 1.795 1.5 2.467 1.5s2.529 1.124 4.127 2.499c1.832 1.575 4.129 2.499 6.215 2.5 4.034.001 3.396-1.446-1.323-3.004-1.917-.632-3.486-1.493-3.486-1.912 0-1.07-4.681-3.083-7.169-3.083-1.732 0-1.87.249-.831 1.5m38 1.437c-1.621 1.116-1.584 1.132 3.5 1.485 1.1.077 3.637.504 5.638.949 2.645.588 4.421.386 6.5-.741l2.862-1.55-3.5-.049c-1.925-.026-5.75-.291-8.5-.588-2.763-.297-5.671-.077-6.5.494m-20 1.044c0 .539 1.237 1.244 2.75 1.566 1.513.321 3.944 1.23 5.404 2.019 2.963 1.601 6.66 1.838 8.68.558 1.064-.675.997-.975-.332-1.485-.916-.351-2.641-.653-3.834-.671-1.192-.017-3.042-.692-4.109-1.5-2.173-1.644-8.559-2.007-8.559-.487"/></svg>